<?xml version="1.0" encoding="UTF-8" standalone="no"?>
<svg
   xmlns:dc="http://purl.org/dc/elements/1.1/"
   xmlns:cc="http://creativecommons.org/ns#"
   xmlns:rdf="http://www.w3.org/1999/02/22-rdf-syntax-ns#"
   xmlns:svg="http://www.w3.org/2000/svg"
   xmlns="http://www.w3.org/2000/svg"
   viewBox="0 0 402.17911 161.09079"
   id="svg2"
   height="161.09079mm"
   width="402.17911mm"
   version="1.0">
  <metadata
     id="metadata45">
    <rdf:RDF>
      <cc:Work
         rdf:about="">
        <dc:format>image/svg+xml</dc:format>
        <dc:type
           rdf:resource="http://purl.org/dc/dcmitype/StillImage" />
      </cc:Work>
    </rdf:RDF>
  </metadata>
  <defs
     id="defs4">
    <pattern
       y="0"
       x="0"
       height="6"
       width="6"
       patternUnits="userSpaceOnUse"
       id="WMFhbasepattern" />
  </defs>
  <path
     id="path7"
     d="m 246.55441,97.217371 0.57263,-2.017042 1.70575,-1.643662 2.80162,-1.294836 0.82155,-0.211667 2.92608,-0.859084 2.63963,-0.821831 1.743,-0.597747 0,3.087794 -0.26134,3.287042 -0.80941,2.427958 -0.79671,1.095868 -1.97979,1.294836 -2.7765,0.635 -1.31996,0.0624 -2.83859,-0.53537 -1.0335,-0.635 -1.29483,-2.241413 -0.0996,-1.033216 z"
     style="fill:none;stroke:#212830;stroke-width:0.01245098px;stroke-linecap:round;stroke-linejoin:round;stroke-miterlimit:4;stroke-dasharray:none;stroke-opacity:1" />
  <path
     id="path9"
     d="m 235.97108,94.403333 1.04592,-2.353169 1.54375,-1.705751 1.69333,-1.045915 2.3035,-0.884202 2.90096,-0.721925 3.52383,-0.585329 2.86371,-0.323709 3.49871,-0.697371 1.68091,-1.13284 0.1493,-0.597746 -0.7843,-1.456832 -2.65204,-0.473004 -0.21166,0 -2.52759,0.597464 -1.00866,2.403123 -12.57554,0 0.32371,-2.938498 0.8842,-2.514882 1.48167,-2.029743 1.54375,-1.2573 2.00463,-1.033497 2.36587,-0.796996 2.73896,-0.560211 3.08808,-0.286456 2.09155,-0.03725 2.86371,0.09963 2.95091,0.336126 3.37425,0.834249 1.86775,0.722207 2.42796,1.606126 1.56887,1.954672 0.85908,2.241408 0.33613,2.963334 0.0373,0.88392 0,16.896084 0.28646,1.27 1.00866,1.00838 0,2.80162 -13.14845,0 -0.53537,-3.37425 -0.16172,-0.83425 -1.7557,1.75542 -2.52758,1.34479 -2.61451,0.75946 -2.76437,0.32371 -0.94629,0.0251 -3.06267,-0.2492 -2.61479,-0.72221 -2.50275,-1.45655 -1.86746,-2.24141 -1.00867,-2.42767 -0.39849,-3.000875 0.36124,-3.087794 z"
     style="fill:none;stroke:#212830;stroke-width:0.01245098px;stroke-linecap:round;stroke-linejoin:round;stroke-miterlimit:4;stroke-dasharray:none;stroke-opacity:1" />
  <path
     id="path11"
     d="m 217.3193,74.158122 0,-8.690751 13.29774,0 0,8.690751 -13.29774,0 z"
     style="fill:none;stroke:#212830;stroke-width:0.01245098px;stroke-linecap:round;stroke-linejoin:round;stroke-miterlimit:4;stroke-dasharray:none;stroke-opacity:1" />
  <path
     id="path13"
     d="m 217.3193,76.112793 13.29774,0 0,31.476247 -13.29774,0 0,-31.476247 z"
     style="fill:none;stroke:#212830;stroke-width:0.01245098px;stroke-linecap:round;stroke-linejoin:round;stroke-miterlimit:4;stroke-dasharray:none;stroke-opacity:1" />
  <path
     id="path15"
     d="m 186.81446,91.103873 0.2492,-3.162582 0.82155,-2.452793 0.66012,-1.045916 1.95467,-1.606126 3.03812,-0.709789 3.05054,0.547793 2.24113,1.568873 1.22005,2.340751 0.53537,2.776503 0.0996,1.743286 -0.28618,2.988169 -0.8842,2.490329 -0.65984,1.00838 -2.01704,1.705751 -2.80162,0.747038 -2.96333,-0.560207 -2.2908,-1.643662 -1.30753,-2.415258 -0.59747,-2.751666 -0.0624,-1.568874 z"
     style="fill:none;stroke:#212830;stroke-width:0.01245098px;stroke-linecap:round;stroke-linejoin:round;stroke-miterlimit:4;stroke-dasharray:none;stroke-opacity:1" />
  <path
     id="path17"
     d="m 176.1315,90.904624 0.162,-3.087793 0.49784,-2.776502 0.85936,-2.5527 1.19522,-2.265962 1.03349,-1.456831 1.92984,-1.917418 2.20387,-1.39446 2.49005,-0.871502 3.06296,-0.423334 3.07537,0.348545 2.91366,1.070751 -0.0375,0.01242 2.51516,2.091831 -0.0621,-0.958709 0,-11.317958 12.92409,0 0,42.184038 -11.85333,0 0,-4.15883 0.0621,-0.75946 -1.03321,1.76812 -2.24141,1.73059 -2.52758,0.98354 -3.21226,0.47329 -3.175,-0.28645 -2.52758,-0.82184 -2.26596,-1.31967 -2.11667,-1.9922 -1.56887,-2.3035 -1.07075,-2.365586 -0.75946,-2.614789 -0.41092,-2.900962 -0.0624,-2.116667 z"
     style="fill:none;stroke:#212830;stroke-width:0.01245098px;stroke-linecap:round;stroke-linejoin:round;stroke-miterlimit:4;stroke-dasharray:none;stroke-opacity:1" />
  <path
     id="path19"
     d="m 147.86779,88.227747 0.34855,-2.92608 1.23274,-2.838874 2.49033,-1.929835 2.83859,-0.709789 3.175,0.460869 2.50275,1.468966 1.49409,2.502747 0.635,2.739249 0.0624,1.51892 0,0.759742 -14.77942,0 0,-1.045915 z"
     style="fill:none;stroke:#212830;stroke-width:0.01245098px;stroke-linecap:round;stroke-linejoin:round;stroke-miterlimit:4;stroke-dasharray:none;stroke-opacity:1" />
  <path
     id="path21"
     d="m 137.24721,91.004249 0.19925,-3.000587 0.56021,-2.701995 0.94629,-2.490329 1.3572,-2.216009 1.76784,-1.992207 2.00463,-1.631244 2.24141,-1.257582 2.49004,-0.921174 2.73925,-0.560493 3.24979,-0.273756 3.43634,0.174131 2.76408,0.535658 2.49033,0.921174 2.27838,1.257582 2.26625,1.817793 1.85504,2.253827 1.25759,2.228709 0.94629,2.465211 0.635,2.714413 0.31129,2.963333 0,1.319672 0,1.39446 -22.56113,0.02483 0.72221,2.652325 0.635,0.846666 2.24113,1.232465 1.41929,0.161995 2.55242,-0.572911 1.48167,-1.917418 12.56312,0 -0.88392,2.80162 -1.31996,2.365592 -1.70575,1.95467 -1.81779,1.3572 -2.20387,1.09588 -2.49005,0.79671 -2.75167,0.53538 -3.05054,0.2492 -1.10828,0 -3.02543,-0.162 -2.80162,-0.53537 -2.51488,-0.88392 -2.26624,-1.1955 -2.16634,-1.69333 -1.74329,-1.99192 -1.3572,-2.203883 -0.94629,-2.490329 -0.53538,-2.751666 -0.16171,-2.676878 z"
     style="fill:none;stroke:#212830;stroke-width:0.01245098px;stroke-linecap:round;stroke-linejoin:round;stroke-miterlimit:4;stroke-dasharray:none;stroke-opacity:1" />
  <path
     id="path23"
     d="m 84.342958,65.367747 17.082632,0 5.8022,20.905046 0.43575,1.917418 0.37367,3.150165 0.0996,-2.303498 0.72221,-2.863709 5.88913,-20.805422 17.02054,0 0,42.221293 -12.98646,0 0,-20.818124 0.0624,-2.303498 -0.53537,1.954953 -5.19204,21.166669 -10.08521,0 -5.229582,-20.0835 -0.448169,-1.867747 0.07479,1.257583 0,20.693664 -13.08608,0 0,-42.221293 z"
     style="fill:none;stroke:#212830;stroke-width:0.01245098px;stroke-linecap:round;stroke-linejoin:round;stroke-miterlimit:4;stroke-dasharray:none;stroke-opacity:1" />
  <path
     id="path25"
     d="m 94.839084,74.133004 2.179038,0 7.931288,30.990536 6.17559,0 7.782,-30.990536 2.46521,0 0,30.990536 7.80683,0 0,-37.240911 -12.53829,0 -8.60354,28.699742 -8.566294,-28.699742 -12.538287,0 0,37.240911 7.906455,0 0,-30.990536 z"
     style="fill:none;stroke:#212830;stroke-width:0.01245098px;stroke-linecap:round;stroke-linejoin:round;stroke-miterlimit:4;stroke-dasharray:none;stroke-opacity:1" />
  <path
     id="path27"
     d="m 147.86779,92.734836 0,-1.232465 22.59867,0 -0.26162,-2.988451 -0.62259,-2.676878 -1.07075,-2.427958 -1.48166,-2.116666 -0.635,-0.722207 -1.97951,-1.64338 -2.26625,-1.232747 -2.55241,-0.821831 -2.87613,-0.410915 -1.5065,-0.06209 -3.02571,0.224084 -2.73925,0.572629 -2.46521,0.971409 -2.1415,1.39446 -0.8842,0.747042 -1.69333,1.954671 -1.23247,2.278663 -0.82183,2.577253 -0.34854,2.901244 0,0.88392 0.22408,2.963334 0.69709,2.652042 1.13312,2.340751 1.63096,2.01704 0.34883,0.37367 2.01704,1.58129 2.34075,1.13284 2.61479,0.75974 2.88855,0.34854 1.108,0.0248 3.12533,-0.16171 2.80134,-0.47329 2.42796,-0.74704 0.97112,-0.44817 2.61479,-1.64366 1.73059,-1.892588 0.44845,-0.784295 -7.94371,0 -2.11667,1.705753 -0.0251,0 -2.61451,0.65983 -0.94629,0.0624 -2.86371,-0.43576 -2.20387,-1.294832 -0.51054,-0.535658 -1.23275,-2.116667 -0.59747,-2.738966 -0.0624,-1.519202 z"
     style="fill:none;stroke:#212830;stroke-width:0.01245098px;stroke-linecap:round;stroke-linejoin:round;stroke-miterlimit:4;stroke-dasharray:none;stroke-opacity:1" />
  <path
     id="path29"
     d="m 159.18575,84.193662 -0.53537,-0.635 -2.27838,-1.133122 -1.25759,-0.12446 -2.63962,0.721924 -0.66012,0.597747 -1.23246,2.365587 -0.0996,0.821831 9.58709,0 -0.88392,-2.614507 z"
     style="fill:none;stroke:#212830;stroke-width:0.01245098px;stroke-linecap:round;stroke-linejoin:round;stroke-miterlimit:4;stroke-dasharray:none;stroke-opacity:1" />
  <path
     id="path31"
     d="m 208.30484,67.932582 -7.84409,0 0,14.903874 -2.42796,-2.266245 -2.07913,-1.743004 -1.25758,-0.809414 -2.49033,-1.083169 -2.55242,-0.274037 -2.71441,0.311291 -2.39042,1.045915 -2.07942,1.730869 -0.69708,0.784296 -1.31996,2.116666 -0.94629,2.452794 -0.57263,2.751666 -0.18683,3.025705 0.18683,3.087793 0.57263,2.739249 0.94629,2.427958 1.29484,2.091551 1.97979,1.95495 2.26596,1.28242 2.61479,0.57263 1.00866,0.0624 2.71413,-0.34855 2.58995,-1.03349 0.53538,-0.32371 1.94225,-1.38204 2.11667,-1.83022 2.11667,-2.179033 0,7.121873 6.67371,0 0,-37.190958 z"
     style="fill:none;stroke:#212830;stroke-width:0.01245098px;stroke-linecap:round;stroke-linejoin:round;stroke-miterlimit:4;stroke-dasharray:none;stroke-opacity:1" />
  <path
     id="path33"
     d="m 197.78387,87.978544 -0.75946,-1.805375 -2.14178,-1.406878 -1.17038,-0.136878 -2.57725,0.796714 -0.65984,0.722206 -0.82183,2.179038 -0.22408,2.776502 0.34854,3.025423 0.78458,1.730868 2.11667,1.543756 1.03321,0.124742 2.4655,-0.884202 0.72192,-0.784296 0.94629,-2.303497 0.2492,-2.452794 -0.31129,-3.125329 z"
     style="fill:none;stroke:#212830;stroke-width:0.01245098px;stroke-linecap:round;stroke-linejoin:round;stroke-miterlimit:4;stroke-dasharray:none;stroke-opacity:1" />
  <path
     id="path35"
     d="m 228.02737,67.895329 -8.13054,0 0,3.81 8.13054,0 0,-3.81 z"
     style="fill:none;stroke:#212830;stroke-width:0.01245098px;stroke-linecap:round;stroke-linejoin:round;stroke-miterlimit:4;stroke-dasharray:none;stroke-opacity:1" />
  <path
     id="path37"
     d="m 228.02737,78.578004 -8.13054,0 0,26.545536 8.13054,0 0,-26.545536 z"
     style="fill:none;stroke:#212830;stroke-width:0.01245098px;stroke-linecap:round;stroke-linejoin:round;stroke-miterlimit:4;stroke-dasharray:none;stroke-opacity:1" />
  <path
     id="path39"
     d="M 262.728,77.606878 260.32516,76.934624 257.36183,76.536127 254,76.399249 l -3.28704,0.161713 -2.86371,0.410916 -2.45279,0.660118 -1.60613,0.721924 -2.46549,1.805376 -1.15796,2.079413 -0.13688,0.75946 7.88134,0 1.70603,-2.017042 0.24892,-0.161714 2.49005,-0.759742 1.48166,-0.08692 2.92608,0.398215 1.45684,0.697371 1.41929,2.141503 0.12446,1.27 -0.79671,2.577535 -0.53538,0.510258 -1.95495,0.821831 -3.23709,0.560211 -0.44817,0.06237 -3.93474,0.572629 -3.21225,0.597747 -2.52759,0.697371 -1.79295,0.697089 -0.68468,0.398498 -1.68091,1.892582 -0.72221,2.627206 -0.0248,0.88392 0.43575,2.826453 1.29483,2.24113 0.59775,0.59774 2.11667,1.29484 2.70171,0.65983 1.70575,0.0996 2.86399,-0.22409 2.65204,-0.65983 0.65984,-0.2492 2.24113,-1.10801 2.41554,-1.56887 1.45683,-1.08317 1.03321,4.918 7.75716,0 -0.38608,-1.56887 -0.12446,-1.70575 0,-0.59746 0,-15.476786 -0.33612,-3.03784 -1.00867,-2.390704 -1.68091,-1.768123 -0.0621,-0.02484 -1.81808,-0.946291 z"
     style="fill:none;stroke:#212830;stroke-width:0.01245098px;stroke-linecap:round;stroke-linejoin:round;stroke-miterlimit:4;stroke-dasharray:none;stroke-opacity:1" />
  <path
     id="path41"
     d="m 257.0257,95.797793 0.1493,-1.855046 0,-0.983827 -2.16634,0.946291 -1.86774,0.498122 -3.0878,1.232747 -0.90904,1.39446 0.72221,1.606127 2.17904,0.560211 2.86371,-0.49784 1.03321,-0.722207 1.08345,-2.179038 z"
     style="fill:none;stroke:#212830;stroke-width:0.01245098px;stroke-linecap:round;stroke-linejoin:round;stroke-miterlimit:4;stroke-dasharray:none;stroke-opacity:1" />
</svg>
