  0
SECTION
  2
HEADER
  9
$ACADVER
  1
AC1009
  9
$INSBASE
 10
0.0
 20
0.0
 30
0.0
  9
$EXTMIN
 10
2859.7508848157949615
 20
1382.4057270467380931
 30
0.0
  9
$EXTMAX
 10
2904.1618832036028834
 20
1392.4259485330399002
 30
0.0
  9
$LIMMIN
 10
0.0
 20
0.0
  9
$LIMMAX
 10
420.0
 20
297.0
  9
$ORTHOMODE
 70
     0
  9
$REGENMODE
 70
     1
  9
$FILLMODE
 70
     1
  9
$QTEXTMODE
 70
     0
  9
$MIRRTEXT
 70
     0
  9
$DRAGMODE
 70
     2
  9
$LTSCALE
 40
1.0
  9
$OSMODE
 70
  4095
  9
$ATTMODE
 70
     1
  9
$TEXTSIZE
 40
2.5
  9
$TRACEWID
 40
1.0
  9
$TEXTSTYLE
  7
STANDARD
  9
$CLAYER
  8
0
  9
$CELTYPE
  6
BYLAYER
  9
$CECOLOR
 62
   256
  9
$DIMSCALE
 40
1.0
  9
$DIMASZ
 40
2.5
  9
$DIMEXO
 40
0.625
  9
$DIMDLI
 40
3.75
  9
$DIMRND
 40
0.0
  9
$DIMDLE
 40
0.0
  9
$DIMEXE
 40
1.25
  9
$DIMTP
 40
0.0
  9
$DIMTM
 40
0.0
  9
$DIMTXT
 40
2.5
  9
$DIMCEN
 40
2.5
  9
$DIMTSZ
 40
0.0
  9
$DIMTOL
 70
     0
  9
$DIMLIM
 70
     0
  9
$DIMTIH
 70
     0
  9
$DIMTOH
 70
     0
  9
$DIMSE1
 70
     0
  9
$DIMSE2
 70
     0
  9
$DIMTAD
 70
     1
  9
$DIMZIN
 70
     8
  9
$DIMBLK
  1

  9
$DIMASO
 70
     1
  9
$DIMSHO
 70
     1
  9
$DIMPOST
  1

  9
$DIMAPOST
  1

  9
$DIMALT
 70
     0
  9
$DIMALTD
 70
     3
  9
$DIMALTF
 40
0.03937007874016
  9
$DIMLFAC
 40
1.0
  9
$DIMTOFL
 70
     1
  9
$DIMTVP
 40
0.0
  9
$DIMTIX
 70
     0
  9
$DIMSOXD
 70
     0
  9
$DIMSAH
 70
     0
  9
$DIMBLK1
  1

  9
$DIMBLK2
  1

  9
$DIMSTYLE
  2
ISO-25
  9
$DIMCLRD
 70
     0
  9
$DIMCLRE
 70
     0
  9
$DIMCLRT
 70
     0
  9
$DIMTFAC
 40
1.0
  9
$DIMGAP
 40
0.625
  9
$LUNITS
 70
     2
  9
$LUPREC
 70
     4
  9
$SKETCHINC
 40
1.0
  9
$FILLETRAD
 40
0.0
  9
$AUNITS
 70
     0
  9
$AUPREC
 70
     0
  9
$MENU
  1
.
  9
$ELEVATION
 40
0.0
  9
$PELEVATION
 40
0.0
  9
$THICKNESS
 40
0.0
  9
$LIMCHECK
 70
     0
  9
$BLIPMODE
 70
     0
  9
$CHAMFERA
 40
0.0
  9
$CHAMFERB
 40
0.0
  9
$SKPOLY
 70
     0
  9
$TDCREATE
 40
2457868.439166666008532
  9
$TDUPDATE
 40
2457868.5209375000558794
  9
$TDINDWG
 40
0.0817708333
  9
$TDUSRTIMER
 40
0.0817708333
  9
$USRTIMER
 70
     1
  9
$ANGBASE
 50
0.0
  9
$ANGDIR
 70
     0
  9
$PDMODE
 70
     0
  9
$PDSIZE
 40
0.0
  9
$PLINEWID
 40
0.0
  9
$COORDS
 70
     1
  9
$SPLFRAME
 70
     0
  9
$SPLINETYPE
 70
     6
  9
$SPLINESEGS
 70
     8
  9
$ATTDIA
 70
     1
  9
$ATTREQ
 70
     1
  9
$HANDLING
 70
     1
  9
$HANDSEED
  5
735
  9
$SURFTAB1
 70
     6
  9
$SURFTAB2
 70
     6
  9
$SURFTYPE
 70
     6
  9
$SURFU
 70
     6
  9
$SURFV
 70
     6
  9
$UCSNAME
  2

  9
$UCSORG
 10
0.0
 20
0.0
 30
0.0
  9
$UCSXDIR
 10
1.0
 20
0.0
 30
0.0
  9
$UCSYDIR
 10
0.0
 20
1.0
 30
0.0
  9
$PUCSNAME
  2

  9
$PUCSORG
 10
0.0
 20
0.0
 30
0.0
  9
$PUCSXDIR
 10
1.0
 20
0.0
 30
0.0
  9
$PUCSYDIR
 10
0.0
 20
1.0
 30
0.0
  9
$USERI1
 70
     0
  9
$USERI2
 70
     0
  9
$USERI3
 70
     0
  9
$USERI4
 70
     0
  9
$USERI5
 70
     0
  9
$USERR1
 40
0.0
  9
$USERR2
 40
0.0
  9
$USERR3
 40
0.0
  9
$USERR4
 40
0.0
  9
$USERR5
 40
0.0
  9
$WORLDVIEW
 70
     1
  9
$SHADEDGE
 70
     3
  9
$SHADEDIF
 70
    70
  9
$TILEMODE
 70
     0
  9
$MAXACTVP
 70
    64
  9
$PLIMCHECK
 70
     0
  9
$PEXTMIN
 10
-28.2708119175931714
 20
-54.8687033896067007
 30
0.0
  9
$PEXTMAX
 10
1638.7048452635031026
 20
1306.1335990880950249
 30
0.0
  9
$PLIMMIN
 10
0.0
 20
0.0
  9
$PLIMMAX
 10
1600.0
 20
1280.0
  9
$UNITMODE
 70
     0
  9
$VISRETAIN
 70
     1
  9
$PLINEGEN
 70
     0
  9
$PSLTSCALE
 70
     1
  0
ENDSEC
  0
SECTION
  2
TABLES
  0
TABLE
  2
VPORT
 70
     1
  0
VPORT
  2
*ACTIVE
 70
     0
 10
0.0
 20
0.0
 11
1.0
 21
1.0
 12
2887.6897954502687753
 22
1389.0301514029999908
 13
0.0
 23
0.0
 14
10.0
 24
10.0
 15
10.0
 25
10.0
 16
0.0
 26
0.0
 36
1.0
 17
0.0
 27
0.0
 37
0.0
 40
38.2696827655179277
 41
2.498684210526315
 42
50.0
 43
0.0
 44
0.0
 50
0.0
 51
0.0
 71
     0
 72
  1000
 73
     1
 74
     3
 75
     0
 76
     0
 77
     0
 78
     0
  0
ENDTAB
  0
TABLE
  2
LTYPE
 70
     2
  0
LTYPE
  2
CONTINUOUS
 70
     0
  3
Solid line
 72
    65
 73
     0
 40
0.0
  0
ENDTAB
  0
TABLE
  2
LAYER
 70
     2
  0
LAYER
  2
0
 70
     0
 62
     7
  6
CONTINUOUS
  0
LAYER
  2
TEXTBOUND
 70
     0
 62
   255
  6
CONTINUOUS
  0
ENDTAB
  0
TABLE
  2
STYLE
 70
     4
  0
STYLE
  2
STANDARD
 70
     0
 40
0.0
 41
1.0
 50
0.0
 71
     0
 42
2.5
  3
txt
  4

  0
STYLE
  2
ANNOTATIVE
 70
     0
 40
0.0
 41
1.0
 50
0.0
 71
     0
 42
2.5
  3
txt
  4

  0
ENDTAB
  0
TABLE
  2
VIEW
 70
     1
  0
ENDTAB
  0
TABLE
  2
UCS
 70
     0
  0
ENDTAB
  0
TABLE
  2
APPID
 70
    12
  0
APPID
  2
ACAD
 70
     0
  0
APPID
  2
ACAD_PSEXT
 70
     0
  0
APPID
  2
ACADANNOPO
 70
     0
  0
APPID
  2
ACADANNOTATIVE
 70
     0
  0
APPID
  2
ACAD_DSTYLE_DIMJAG
 70
     0
  0
APPID
  2
ACAD_DSTYLE_DIMTALN
 70
     0
  0
APPID
  2
ACAD_MLEADERVER
 70
     0
  0
APPID
  2
ACAD_NAV_VCDISPLAY
 70
     0
  0
APPID
  2
ACLAYERTOOLS
 70
     0
  0
APPID
  2
ACAD_EXEMPT_FROM_CAD_STANDARDS
 70
     0
  0
APPID
  2
ACAECLAYERSTANDARD
 70
     0
  0
APPID
  2
ACCMTRANSPARENCY
 70
     0
  0
ENDTAB
  0
TABLE
  2
DIMSTYLE
 70
     5
  0
DIMSTYLE
  2
STANDARD
 70
     0
  3

  4

  5

  6

  7

 40
1.0
 41
0.18
 42
0.0625
 43
0.38
 44
0.18
 45
0.0
 46
0.0
 47
0.0
 48
0.0
140
0.18
141
0.09
142
0.0
143
25.3999999999999986
144
1.0
145
0.0
146
1.0
147
0.09
 71
     0
 72
     0
 73
     1
 74
     1
 75
     0
 76
     0
 77
     0
 78
     0
170
     0
171
     2
172
     0
173
     0
174
     0
175
     0
176
     0
177
     0
178
     0
  0
DIMSTYLE
  2
ANNOTATIVE
 70
     0
  3

  4

  5

  6

  7

 40
0.0
 41
2.5
 42
0.625
 43
3.75
 44
1.25
 45
0.0
 46
0.0
 47
0.0
 48
0.0
140
2.5
141
2.5
142
0.0
143
0.03937007874016
144
1.0
145
0.0
146
1.0
147
0.625
 71
     0
 72
     0
 73
     0
 74
     0
 75
     0
 76
     0
 77
     1
 78
     8
170
     0
171
     3
172
     1
173
     0
174
     0
175
     0
176
     0
177
     0
178
     0
  0
DIMSTYLE
  2
ISO-25
 70
     0
  3

  4

  5

  6

  7

 40
1.0
 41
2.5
 42
0.625
 43
3.75
 44
1.25
 45
0.0
 46
0.0
 47
0.0
 48
0.0
140
2.5
141
2.5
142
0.0
143
0.03937007874016
144
1.0
145
0.0
146
1.0
147
0.625
 71
     0
 72
     0
 73
     0
 74
     0
 75
     0
 76
     0
 77
     1
 78
     8
170
     0
171
     3
172
     1
173
     0
174
     0
175
     0
176
     0
177
     0
178
     0
  0
ENDTAB
  0
ENDSEC
  0
SECTION
  2
BLOCKS
  0
BLOCK
  8
0
  2
$MODEL_SPACE
 70
     0
 10
0.0
 20
0.0
 30
0.0
  3
$MODEL_SPACE
  1

  0
ENDBLK
  5
21
  8
0
  0
BLOCK
 67
     1
  8
0
  2
$PAPER_SPACE
 70
     0
 10
0.0
 20
0.0
 30
0.0
  3
$PAPER_SPACE
  1

  0
ENDBLK
  5
D5
 67
     1
  8
0
  0
BLOCK
  8
0
  2
*U5
 70
     1
 10
0.0
 20
0.0
 30
0.0
  3
*U5
  1

  0
TEXT
  5
3D8
  8
0
 10
1.28558536531006
 20
1.3158350680490269
 30
0.0
 40
2.5
  1
Stephen Sharp
  0
ENDBLK
  5
3DA
  8
0
  0
ENDSEC
  0
SECTION
  2
ENTITIES
  0
POLYLINE
  5
350
  8
TEXTBOUND
 66
     1
 10
0.0
 20
0.0
 30
0.0
 70
     1
  0
VERTEX
  5
587
  8
TEXTBOUND
 10
2898.2404167518971008
 20
1384.8735631698089037
 30
0.0
  0
VERTEX
  5
588
  8
TEXTBOUND
 10
2898.3749955348898766
 20
1385.3520655093400364
 30
0.0
  0
VERTEX
  5
589
  8
TEXTBOUND
 10
2898.7787318838668398
 20
1385.7408486602089397
 30
0.0
  0
VERTEX
  5
58A
  8
TEXTBOUND
 10
2899.444149199784988
 20
1386.0473892214740772
 30
0.0
  0
VERTEX
  5
58B
  8
TEXTBOUND
 10
2899.6385407752159153
 20
1386.0997254148589946
 30
0.0
  0
VERTEX
  5
58C
  8
TEXTBOUND
 10
2900.3338644873579142
 20
1386.3015935893490678
 30
0.0
  0
VERTEX
  5
58D
  8
TEXTBOUND
 10
2900.9618988079810151
 20
1386.4959851647840878
 30
0.0
  0
VERTEX
  5
58E
  8
TEXTBOUND
 10
2901.3731117560150778
 20
1386.6380405468330537
 30
0.0
  0
VERTEX
  5
58F
  8
TEXTBOUND
 10
2901.3731117560150778
 20
1385.9053338394239745
 30
0.0
  0
VERTEX
  5
590
  8
TEXTBOUND
 10
2901.3132989635769263
 20
1385.1277675376859406
 30
0.0
  0
VERTEX
  5
591
  8
TEXTBOUND
 10
2901.1189073881391778
 20
1384.5520694104338872
 30
0.0
  0
VERTEX
  5
592
  8
TEXTBOUND
 10
2900.9319924117658047
 20
1384.2903884435040709
 30
0.0
  0
VERTEX
  5
593
  8
TEXTBOUND
 10
2900.4609666712931357
 20
1383.9838478822418892
 30
0.0
  0
VERTEX
  5
594
  8
TEXTBOUND
 10
2899.8030259544389082
 20
1383.8343159011360513
 30
0.0
  0
VERTEX
  5
595
  8
TEXTBOUND
 10
2899.4890087941162164
 20
1383.8193627030270818
 30
0.0
  0
VERTEX
  5
596
  8
TEXTBOUND
 10
2898.8161148791468804
 20
1383.9464648869650318
 30
0.0
  0
VERTEX
  5
597
  8
TEXTBOUND
 10
2898.5693871103280799
 20
1384.0959968680690508
 30
0.0
  0
VERTEX
  5
598
  8
TEXTBOUND
 10
2898.2628465490629424
 20
1384.6268354009880568
 30
0.0
  0
SEQEND
  5
599
  8
TEXTBOUND
  0
POLYLINE
  5
351
  8
TEXTBOUND
 66
     1
 10
0.0
 20
0.0
 30
0.0
 70
     1
  0
VERTEX
  5
59A
  8
TEXTBOUND
 10
2895.7282794693519463
 20
1385.538980485717957
 30
0.0
  0
VERTEX
  5
59B
  8
TEXTBOUND
 10
2895.9750072381780228
 20
1386.0997254148589946
 30
0.0
  0
VERTEX
  5
59C
  8
TEXTBOUND
 10
2896.3413605918749454
 20
1386.5034617638370946
 30
0.0
  0
VERTEX
  5
59D
  8
TEXTBOUND
 10
2896.7450969408591845
 20
1386.7501895326599879
 30
0.0
  0
VERTEX
  5
59E
  8
TEXTBOUND
 10
2897.2908886718928443
 20
1386.9595343062039774
 30
0.0
  0
VERTEX
  5
59F
  8
TEXTBOUND
 10
2897.9787357849700129
 20
1387.1314960844740654
 30
0.0
  0
VERTEX
  5
5A0
  8
TEXTBOUND
 10
2898.8168042110028182
 20
1387.2698927052879299
 30
0.0
  0
VERTEX
  5
5A1
  8
TEXTBOUND
 10
2899.4964853931742255
 20
1387.3483174570740175
 30
0.0
  0
VERTEX
  5
5A2
  8
TEXTBOUND
 10
2900.326387888293084
 20
1387.5128026362890523
 30
0.0
  0
VERTEX
  5
5A3
  8
TEXTBOUND
 10
2900.7226476382202236
 20
1387.7819602022771051
 30
0.0
  0
VERTEX
  5
5A4
  8
TEXTBOUND
 10
2900.7600306334929883
 20
1387.9240155843228877
 30
0.0
  0
VERTEX
  5
5A5
  8
TEXTBOUND
 10
2900.5731156571191605
 20
1388.2679391408619267
 30
0.0
  0
VERTEX
  5
5A6
  8
TEXTBOUND
 10
2899.9450813364810529
 20
1388.3800881266909073
 30
0.0
  0
VERTEX
  5
5A7
  8
TEXTBOUND
 10
2899.8927451430931796
 20
1388.3800881266909073
 30
0.0
  0
VERTEX
  5
5A8
  8
TEXTBOUND
 10
2899.2946172186848344
 20
1388.2380327446430783
 30
0.0
  0
VERTEX
  5
5A9
  8
TEXTBOUND
 10
2899.0553660489090362
 20
1387.6698112164478971
 30
0.0
  0
VERTEX
  5
5AA
  8
TEXTBOUND
 10
2896.072203025898034
 20
1387.6698112164478971
 30
0.0
  0
VERTEX
  5
5AB
  8
TEXTBOUND
 10
2896.1469690164508393
 20
1388.3651349285810284
 30
0.0
  0
VERTEX
  5
5AC
  8
TEXTBOUND
 10
2896.3563137899900539
 20
1388.9632628529959675
 30
0.0
  0
VERTEX
  5
5AD
  8
TEXTBOUND
 10
2896.7077139455859651
 20
1389.4417651925271002
 30
0.0
  0
VERTEX
  5
5AE
  8
TEXTBOUND
 10
2897.0740672992887994
 20
1389.7408291547340013
 30
0.0
  0
VERTEX
  5
5AF
  8
TEXTBOUND
 10
2897.5525696388208416
 20
1389.9875569235559851
 30
0.0
  0
VERTEX
  5
5B0
  8
TEXTBOUND
 10
2898.1133145679627887
 20
1390.1744718999339057
 30
0.0
  0
VERTEX
  5
5B1
  8
TEXTBOUND
 10
2898.7637786857658284
 20
1390.3090506829300921
 30
0.0
  0
VERTEX
  5
5B2
  8
TEXTBOUND
 10
2899.4964853931742255
 20
1390.3763400744239789
 30
0.0
  0
VERTEX
  5
5B3
  8
TEXTBOUND
 10
2899.9899409308118265
 20
1390.3838166734799415
 30
0.0
  0
VERTEX
  5
5B4
  8
TEXTBOUND
 10
2900.6703114448391716
 20
1390.3613868763150094
 30
0.0
  0
VERTEX
  5
5B5
  8
TEXTBOUND
 10
2901.3722731930602095
 20
1390.2807016178969661
 30
0.0
  0
VERTEX
  5
5B6
  8
TEXTBOUND
 10
2902.1731078549269114
 20
1390.0847527112730404
 30
0.0
  0
VERTEX
  5
5B7
  8
TEXTBOUND
 10
2902.6142271991839152
 20
1389.9127909330040893
 30
0.0
  0
VERTEX
  5
5B8
  8
TEXTBOUND
 10
2903.1899253264341496
 20
1389.5314843811879655
 30
0.0
  0
VERTEX
  5
5B9
  8
TEXTBOUND
 10
2903.5637552791949929
 20
1389.067935239766939
 30
0.0
  0
VERTEX
  5
5BA
  8
TEXTBOUND
 10
2903.7656234536839293
 20
1388.5370967068499795
 30
0.0
  0
VERTEX
  5
5BB
  8
TEXTBOUND
 10
2903.8478660432870129
 20
1387.8342963956620224
 30
0.0
  0
VERTEX
  5
5BC
  8
TEXTBOUND
 10
2903.8553426423450219
 20
1387.6249516221180329
 30
0.0
  0
VERTEX
  5
5BD
  8
TEXTBOUND
 10
2903.8553426423450219
 20
1383.6174945285360991
 30
0.0
  0
VERTEX
  5
5BE
  8
TEXTBOUND
 10
2903.9226320338411824
 20
1383.3184305663289706
 30
0.0
  0
VERTEX
  5
5BF
  8
TEXTBOUND
 10
2904.1618832036028834
 20
1383.0791793965629495
 30
0.0
  0
VERTEX
  5
5C0
  8
TEXTBOUND
 10
2904.1618832036028834
 20
1382.4147823981440979
 30
0.0
  0
VERTEX
  5
5C1
  8
TEXTBOUND
 10
2901.0441413976000149
 20
1382.4147823981440979
 30
0.0
  0
VERTEX
  5
5C2
  8
TEXTBOUND
 10
2900.9170392136579721
 20
1383.2137581795559527
 30
0.0
  0
VERTEX
  5
5C3
  8
TEXTBOUND
 10
2900.8771640186960212
 20
1383.4131341543609324
 30
0.0
  0
VERTEX
  5
5C4
  8
TEXTBOUND
 10
2900.4609666712931357
 20
1382.9969368069560005
 30
0.0
  0
VERTEX
  5
5C5
  8
TEXTBOUND
 10
2899.8628387468770597
 20
1382.6754430475830304
 30
0.0
  0
VERTEX
  5
5C6
  8
TEXTBOUND
 10
2899.2422810252960517
 20
1382.4960046702578893
 30
0.0
  0
VERTEX
  5
5C7
  8
TEXTBOUND
 10
2898.5843403084431884
 20
1382.4212386797059935
 30
0.0
  0
VERTEX
  5
5C8
  8
TEXTBOUND
 10
2898.360042336782044
 20
1382.4137620806500308
 30
0.0
  0
VERTEX
  5
5C9
  8
TEXTBOUND
 10
2897.6348122284248348
 20
1382.4735748730929572
 30
0.0
  0
VERTEX
  5
5CA
  8
TEXTBOUND
 10
2897.0142545068511026
 20
1382.6455366513619083
 30
0.0
  0
VERTEX
  5
5CB
  8
TEXTBOUND
 10
2896.4195077195900012
 20
1382.9903173975978916
 30
0.0
  0
VERTEX
  5
5CC
  8
TEXTBOUND
 10
2895.9750072381780228
 20
1383.5202987408190438
 30
0.0
  0
VERTEX
  5
5CD
  8
TEXTBOUND
 10
2895.7357560684167765
 20
1384.0959968680690508
 30
0.0
  0
VERTEX
  5
5CE
  8
TEXTBOUND
 10
2895.6428086659498149
 20
1384.8085936202598987
 30
0.0
  0
SEQEND
  5
5CF
  8
TEXTBOUND
  0
POLYLINE
  5
352
  8
TEXTBOUND
 66
     1
 10
0.0
 20
0.0
 30
0.0
 70
     1
  0
VERTEX
  5
5D0
  8
TEXTBOUND
 10
2891.3021328286840799
 20
1390.3399773966409612
 30
0.0
  0
VERTEX
  5
5D1
  8
TEXTBOUND
 10
2891.3021328286840799
 20
1392.4008495175269218
 30
0.0
  0
VERTEX
  5
5D2
  8
TEXTBOUND
 10
2894.4572576299751745
 20
1392.4008495175269218
 30
0.0
  0
VERTEX
  5
5D3
  8
TEXTBOUND
 10
2894.4572576299751745
 20
1390.3399773966409612
 30
0.0
  0
SEQEND
  5
5D4
  8
TEXTBOUND
  0
POLYLINE
  5
353
  8
TEXTBOUND
 66
     1
 10
0.0
 20
0.0
 30
0.0
 70
     1
  0
VERTEX
  5
5D5
  8
TEXTBOUND
 10
2891.3021328286840799
 20
1389.8764282552199347
 30
0.0
  0
VERTEX
  5
5D6
  8
TEXTBOUND
 10
2894.4572576299751745
 20
1389.8764282552199347
 30
0.0
  0
VERTEX
  5
5D7
  8
TEXTBOUND
 10
2894.4572576299751745
 20
1382.4147823981440979
 30
0.0
  0
VERTEX
  5
5D8
  8
TEXTBOUND
 10
2891.3021328286840799
 20
1382.4147823981440979
 30
0.0
  0
SEQEND
  5
5D9
  8
TEXTBOUND
  0
POLYLINE
  5
354
  8
TEXTBOUND
 66
     1
 10
0.0
 20
0.0
 30
0.0
 70
     1
  0
VERTEX
  5
5DA
  8
TEXTBOUND
 10
2884.0647849432639305
 20
1386.3240233865139999
 30
0.0
  0
VERTEX
  5
5DB
  8
TEXTBOUND
 10
2884.124597735702082
 20
1387.071683292032958
 30
0.0
  0
VERTEX
  5
5DC
  8
TEXTBOUND
 10
2884.3189893111398305
 20
1387.6548580183389276
 30
0.0
  0
VERTEX
  5
5DD
  8
TEXTBOUND
 10
2884.4759978912979932
 20
1387.9015857871600019
 30
0.0
  0
VERTEX
  5
5DE
  8
TEXTBOUND
 10
2884.9395470327208386
 20
1388.2828923389729425
 30
0.0
  0
VERTEX
  5
5DF
  8
TEXTBOUND
 10
2885.6593426295871723
 20
1388.4502866638270007
 30
0.0
  0
VERTEX
  5
5E0
  8
TEXTBOUND
 10
2886.3825306503708816
 20
1388.3202753342479809
 30
0.0
  0
VERTEX
  5
5E1
  8
TEXTBOUND
 10
2886.9142412759088074
 20
1387.9496891406909072
 30
0.0
  0
VERTEX
  5
5E2
  8
TEXTBOUND
 10
2887.2049565464471925
 20
1387.3931770514041091
 30
0.0
  0
VERTEX
  5
5E3
  8
TEXTBOUND
 10
2887.3320587303819593
 20
1386.7352363345510184
 30
0.0
  0
VERTEX
  5
5E4
  8
TEXTBOUND
 10
2887.3544885275468914
 20
1386.3240233865139999
 30
0.0
  0
VERTEX
  5
5E5
  8
TEXTBOUND
 10
2887.2871991360511856
 20
1385.6137464762700802
 30
0.0
  0
VERTEX
  5
5E6
  8
TEXTBOUND
 10
2887.0778543625051498
 20
1385.0230951509111037
 30
0.0
  0
VERTEX
  5
5E7
  8
TEXTBOUND
 10
2886.9208457823401659
 20
1384.7838439811469016
 30
0.0
  0
VERTEX
  5
5E8
  8
TEXTBOUND
 10
2886.4423434428172186
 20
1384.3801076321649361
 30
0.0
  0
VERTEX
  5
5E9
  8
TEXTBOUND
 10
2885.7786164884228128
 20
1384.2041800057029377
 30
0.0
  0
VERTEX
  5
5EA
  8
TEXTBOUND
 10
2885.0741258157131597
 20
1384.3352480378339351
 30
0.0
  0
VERTEX
  5
5EB
  8
TEXTBOUND
 10
2884.5299097641468506
 20
1384.7251341643279829
 30
0.0
  0
VERTEX
  5
5EC
  8
TEXTBOUND
 10
2884.2217935234211836
 20
1385.2997293159530727
 30
0.0
  0
VERTEX
  5
5ED
  8
TEXTBOUND
 10
2884.079738141379039
 20
1385.9501934337549756
 30
0.0
  0
SEQEND
  5
5EE
  8
TEXTBOUND
  0
POLYLINE
  5
355
  8
TEXTBOUND
 66
     1
 10
0.0
 20
0.0
 30
0.0
 70
     1
  0
VERTEX
  5
5EF
  8
TEXTBOUND
 10
2881.5302178635529344
 20
1386.3688829808450009
 30
0.0
  0
VERTEX
  5
5F0
  8
TEXTBOUND
 10
2881.5676008588329751
 20
1387.1015896882540801
 30
0.0
  0
VERTEX
  5
5F1
  8
TEXTBOUND
 10
2881.6872264437110971
 20
1387.7595304051098992
 30
0.0
  0
VERTEX
  5
5F2
  8
TEXTBOUND
 10
2881.8890946181991239
 20
1388.3651349285810284
 30
0.0
  0
VERTEX
  5
5F3
  8
TEXTBOUND
 10
2882.1732053823061506
 20
1388.9034500605539506
 30
0.0
  0
VERTEX
  5
5F4
  8
TEXTBOUND
 10
2882.4199331511181299
 20
1389.2473736170920802
 30
0.0
  0
VERTEX
  5
5F5
  8
TEXTBOUND
 10
2882.8760056934911518
 20
1389.7034461594569166
 30
0.0
  0
VERTEX
  5
5F6
  8
TEXTBOUND
 10
2883.3993676273521487
 20
1390.0324165178860767
 30
0.0
  0
VERTEX
  5
5F7
  8
TEXTBOUND
 10
2883.9900189527102157
 20
1390.2417612914321126
 30
0.0
  0
VERTEX
  5
5F8
  8
TEXTBOUND
 10
2884.7169856606410576
 20
1390.3397792745240622
 30
0.0
  0
VERTEX
  5
5F9
  8
TEXTBOUND
 10
2885.4479557684749125
 20
1390.2567144895419915
 30
0.0
  0
VERTEX
  5
5FA
  8
TEXTBOUND
 10
2886.1379650911321733
 20
1390.0042720544261101
 30
0.0
  0
VERTEX
  5
5FB
  8
TEXTBOUND
 10
2886.1283262824940721
 20
1390.0025101216649546
 30
0.0
  0
VERTEX
  5
5FC
  8
TEXTBOUND
 10
2886.7260235926651148
 20
1389.5058320751900283
 30
0.0
  0
VERTEX
  5
5FD
  8
TEXTBOUND
 10
2886.7115010088009512
 20
1389.7333525556800851
 30
0.0
  0
VERTEX
  5
5FE
  8
TEXTBOUND
 10
2886.7115010088009512
 20
1392.4147823981440979
 30
0.0
  0
VERTEX
  5
5FF
  8
TEXTBOUND
 10
2889.7769066214309532
 20
1392.4147823981440979
 30
0.0
  0
VERTEX
  5
600
  8
TEXTBOUND
 10
2889.7769066214309532
 20
1382.4147823981440979
 30
0.0
  0
VERTEX
  5
601
  8
TEXTBOUND
 10
2886.9657053766782155
 20
1382.4147823981440979
 30
0.0
  0
VERTEX
  5
602
  8
TEXTBOUND
 10
2886.9657053766782155
 20
1383.4006731559359196
 30
0.0
  0
VERTEX
  5
603
  8
TEXTBOUND
 10
2886.9806585747860481
 20
1383.5801115332610607
 30
0.0
  0
VERTEX
  5
604
  8
TEXTBOUND
 10
2886.7339308059658833
 20
1383.161421986168989
 30
0.0
  0
VERTEX
  5
605
  8
TEXTBOUND
 10
2886.2030922730468774
 20
1382.7502090381349262
 30
0.0
  0
VERTEX
  5
606
  8
TEXTBOUND
 10
2885.6049643486321656
 20
1382.5184344674250951
 30
0.0
  0
VERTEX
  5
607
  8
TEXTBOUND
 10
2884.8420218086089335
 20
1382.4057270467380931
 30
0.0
  0
VERTEX
  5
608
  8
TEXTBOUND
 10
2884.0872147404288626
 20
1382.4735748730929572
 30
0.0
  0
VERTEX
  5
609
  8
TEXTBOUND
 10
2883.4890868160141508
 20
1382.6679664485270678
 30
0.0
  0
VERTEX
  5
60A
  8
TEXTBOUND
 10
2882.9507716840371359
 20
1382.9819836088458942
 30
0.0
  0
VERTEX
  5
60B
  8
TEXTBOUND
 10
2882.4487202959858223
 20
1383.4521587182950952
 30
0.0
  0
VERTEX
  5
60C
  8
TEXTBOUND
 10
2882.0760095945870489
 20
1383.9988010803519956
 30
0.0
  0
VERTEX
  5
60D
  8
TEXTBOUND
 10
2881.8218052267097846
 20
1384.5595460094900773
 30
0.0
  0
VERTEX
  5
60E
  8
TEXTBOUND
 10
2881.6423668493871446
 20
1385.1801037310710853
 30
0.0
  0
VERTEX
  5
60F
  8
TEXTBOUND
 10
2881.545171061668043
 20
1385.8679508441468897
 30
0.0
  0
SEQEND
  5
610
  8
TEXTBOUND
  0
POLYLINE
  5
356
  8
TEXTBOUND
 66
     1
 10
0.0
 20
0.0
 30
0.0
 70
     1
  0
VERTEX
  5
611
  8
TEXTBOUND
 10
2874.823708511051791
 20
1387.0043939005349785
 30
0.0
  0
VERTEX
  5
612
  8
TEXTBOUND
 10
2874.9059511006557841
 20
1387.6997176126690192
 30
0.0
  0
VERTEX
  5
613
  8
TEXTBOUND
 10
2875.198204695414006
 20
1388.372786497548077
 30
0.0
  0
VERTEX
  5
614
  8
TEXTBOUND
 10
2875.788189789171156
 20
1388.8286840700020548
 30
0.0
  0
VERTEX
  5
615
  8
TEXTBOUND
 10
2876.4627685715299776
 20
1388.9973287655900549
 30
0.0
  0
VERTEX
  5
616
  8
TEXTBOUND
 10
2877.2162202087120022
 20
1388.8884968624440717
 30
0.0
  0
VERTEX
  5
617
  8
TEXTBOUND
 10
2877.8114800607067991
 20
1388.5398446634169431
 30
0.0
  0
VERTEX
  5
618
  8
TEXTBOUND
 10
2878.1657482887230799
 20
1387.946445381491003
 30
0.0
  0
VERTEX
  5
619
  8
TEXTBOUND
 10
2878.3152802698309642
 20
1387.2959812636891002
 30
0.0
  0
VERTEX
  5
61A
  8
TEXTBOUND
 10
2878.3302334679310661
 20
1386.9371045090410917
 30
0.0
  0
VERTEX
  5
61B
  8
TEXTBOUND
 10
2878.3302334679310661
 20
1386.7576661317139042
 30
0.0
  0
VERTEX
  5
61C
  8
TEXTBOUND
 10
2874.823708511051791
 20
1386.7576661317139042
 30
0.0
  0
SEQEND
  5
61D
  8
TEXTBOUND
  0
POLYLINE
  5
357
  8
TEXTBOUND
 66
     1
 10
0.0
 20
0.0
 30
0.0
 70
     1
  0
VERTEX
  5
61E
  8
TEXTBOUND
 10
2872.3040946294559035
 20
1386.3464531836800688
 30
0.0
  0
VERTEX
  5
61F
  8
TEXTBOUND
 10
2872.3489542237871319
 20
1387.0567300939219422
 30
0.0
  0
VERTEX
  5
620
  8
TEXTBOUND
 10
2872.4835330067789982
 20
1387.6997176126690192
 30
0.0
  0
VERTEX
  5
621
  8
TEXTBOUND
 10
2872.7078309784328667
 20
1388.2903689380289052
 30
0.0
  0
VERTEX
  5
622
  8
TEXTBOUND
 10
2873.0293247378131127
 20
1388.813730871891039
 30
0.0
  0
VERTEX
  5
623
  8
TEXTBOUND
 10
2873.4495014558619914
 20
1389.2873846267830231
 30
0.0
  0
VERTEX
  5
624
  8
TEXTBOUND
 10
2873.9265166244290413
 20
1389.6735397632380682
 30
0.0
  0
VERTEX
  5
625
  8
TEXTBOUND
 10
2874.4573551573480472
 20
1389.9726037254461062
 30
0.0
  0
VERTEX
  5
626
  8
TEXTBOUND
 10
2875.0480064827052047
 20
1390.1894250980460583
 30
0.0
  0
VERTEX
  5
627
  8
TEXTBOUND
 10
2875.6984706005091539
 20
1390.324003881039971
 30
0.0
  0
VERTEX
  5
628
  8
TEXTBOUND
 10
2876.4687467670510159
 20
1390.3888692424309284
 30
0.0
  0
VERTEX
  5
629
  8
TEXTBOUND
 10
2877.2835096002090722
 20
1390.3464336782049031
 30
0.0
  0
VERTEX
  5
62A
  8
TEXTBOUND
 10
2877.9414503170692115
 20
1390.2193314942669531
 30
0.0
  0
VERTEX
  5
62B
  8
TEXTBOUND
 10
2878.5321016424268237
 20
1390.0025101216649546
 30
0.0
  0
VERTEX
  5
62C
  8
TEXTBOUND
 10
2879.0704167743961079
 20
1389.7034461594569166
 30
0.0
  0
VERTEX
  5
62D
  8
TEXTBOUND
 10
2879.6105258525999488
 20
1389.2730467377659807
 30
0.0
  0
VERTEX
  5
62E
  8
TEXTBOUND
 10
2880.0498512506301267
 20
1388.7389648813389158
 30
0.0
  0
VERTEX
  5
62F
  8
TEXTBOUND
 10
2880.3489152128381647
 20
1388.2081263484210467
 30
0.0
  0
VERTEX
  5
630
  8
TEXTBOUND
 10
2880.5732131844920332
 20
1387.6249516221180329
 30
0.0
  0
VERTEX
  5
631
  8
TEXTBOUND
 10
2880.7227451655921868
 20
1386.9819641033720927
 30
0.0
  0
VERTEX
  5
632
  8
TEXTBOUND
 10
2880.7975111561459016
 20
1386.2791637921839083
 30
0.0
  0
VERTEX
  5
633
  8
TEXTBOUND
 10
2880.7975111561459016
 20
1385.9651466318659914
 30
0.0
  0
VERTEX
  5
634
  8
TEXTBOUND
 10
2880.7975111561459016
 20
1385.6361762734379681
 30
0.0
  0
VERTEX
  5
635
  8
TEXTBOUND
 10
2875.4442662326391655
 20
1385.6286996743820055
 30
0.0
  0
VERTEX
  5
636
  8
TEXTBOUND
 10
2875.6162280108978848
 20
1385.0006653537470811
 30
0.0
  0
VERTEX
  5
637
  8
TEXTBOUND
 10
2875.7657599920048597
 20
1384.7987971792570079
 30
0.0
  0
VERTEX
  5
638
  8
TEXTBOUND
 10
2876.2965985249238656
 20
1384.5072098161031136
 30
0.0
  0
VERTEX
  5
639
  8
TEXTBOUND
 10
2876.633045482405123
 20
1384.4698268208280751
 30
0.0
  0
VERTEX
  5
63A
  8
TEXTBOUND
 10
2877.2386500058778438
 20
1384.6044056038210783
 30
0.0
  0
VERTEX
  5
63B
  8
TEXTBOUND
 10
2877.5900501614728455
 20
1385.0604781461879611
 30
0.0
  0
VERTEX
  5
63C
  8
TEXTBOUND
 10
2880.5732131844920332
 20
1385.0604781461879611
 30
0.0
  0
VERTEX
  5
63D
  8
TEXTBOUND
 10
2880.3638684109459973
 20
1384.3950608302750425
 30
0.0
  0
VERTEX
  5
63E
  8
TEXTBOUND
 10
2880.0498512506301267
 20
1383.8343159011360513
 30
0.0
  0
VERTEX
  5
63F
  8
TEXTBOUND
 10
2879.6461149016458876
 20
1383.3707667597150248
 30
0.0
  0
VERTEX
  5
640
  8
TEXTBOUND
 10
2879.2124721564459833
 20
1383.0492730003420547
 30
0.0
  0
VERTEX
  5
641
  8
TEXTBOUND
 10
2878.6891102225840768
 20
1382.7875920334099646
 30
0.0
  0
VERTEX
  5
642
  8
TEXTBOUND
 10
2878.0984588972269194
 20
1382.6006770570309072
 30
0.0
  0
VERTEX
  5
643
  8
TEXTBOUND
 10
2877.4479947794229702
 20
1382.4735748730929572
 30
0.0
  0
VERTEX
  5
644
  8
TEXTBOUND
 10
2876.7227646710739464
 20
1382.4137620806500308
 30
0.0
  0
VERTEX
  5
645
  8
TEXTBOUND
 10
2876.4610837041391278
 20
1382.4137620806500308
 30
0.0
  0
VERTEX
  5
646
  8
TEXTBOUND
 10
2875.7433301948399276
 20
1382.4511450759268882
 30
0.0
  0
VERTEX
  5
647
  8
TEXTBOUND
 10
2875.0779128789281458
 20
1382.5782472598659751
 30
0.0
  0
VERTEX
  5
648
  8
TEXTBOUND
 10
2874.4797849545129793
 20
1382.7875920334099646
 30
0.0
  0
VERTEX
  5
649
  8
TEXTBOUND
 10
2873.9414698225368738
 20
1383.0717027975078963
 30
0.0
  0
VERTEX
  5
64A
  8
TEXTBOUND
 10
2873.4275090412988902
 20
1383.4732346578580291
 30
0.0
  0
VERTEX
  5
64B
  8
TEXTBOUND
 10
2873.0143715396980042
 20
1383.9464648869650318
 30
0.0
  0
VERTEX
  5
64C
  8
TEXTBOUND
 10
2872.6928777803250341
 20
1384.4698268208280751
 30
0.0
  0
VERTEX
  5
64D
  8
TEXTBOUND
 10
2872.4685798086638897
 20
1385.0604781461879611
 30
0.0
  0
VERTEX
  5
64E
  8
TEXTBOUND
 10
2872.3414776247291229
 20
1385.7109422639889544
 30
0.0
  0
SEQEND
  5
64F
  8
TEXTBOUND
  0
POLYLINE
  5
358
  8
TEXTBOUND
 66
     1
 10
0.0
 20
0.0
 30
0.0
 70
     1
  0
VERTEX
  5
650
  8
TEXTBOUND
 10
2859.7508848157949615
 20
1392.4259485330399002
 30
0.0
  0
VERTEX
  5
651
  8
TEXTBOUND
 10
2863.8032015037010751
 20
1392.4259485330399002
 30
0.0
  0
VERTEX
  5
652
  8
TEXTBOUND
 10
2865.1788957298549576
 20
1387.4689633594500719
 30
0.0
  0
VERTEX
  5
653
  8
TEXTBOUND
 10
2865.2835681166388895
 20
1387.0128908170840987
 30
0.0
  0
VERTEX
  5
654
  8
TEXTBOUND
 10
2865.3715245299090384
 20
1386.2652613042830581
 30
0.0
  0
VERTEX
  5
655
  8
TEXTBOUND
 10
2865.3961869433828724
 20
1386.8140000040671111
 30
0.0
  0
VERTEX
  5
656
  8
TEXTBOUND
 10
2865.5676788807309094
 20
1387.4913931566170504
 30
0.0
  0
VERTEX
  5
657
  8
TEXTBOUND
 10
2866.9658029040501788
 20
1392.4259485330399002
 30
0.0
  0
VERTEX
  5
658
  8
TEXTBOUND
 10
2871.0031663938561906
 20
1392.4259485330399002
 30
0.0
  0
VERTEX
  5
659
  8
TEXTBOUND
 10
2871.0031663938561906
 20
1382.4147823981440979
 30
0.0
  0
VERTEX
  5
65A
  8
TEXTBOUND
 10
2867.9228075831188107
 20
1382.4147823981440979
 30
0.0
  0
VERTEX
  5
65B
  8
TEXTBOUND
 10
2867.9228075831188107
 20
1387.3493377745669477
 30
0.0
  0
VERTEX
  5
65C
  8
TEXTBOUND
 10
2867.9377607812270981
 20
1387.89512950559606
 30
0.0
  0
VERTEX
  5
65D
  8
TEXTBOUND
 10
2867.8106585972850553
 20
1387.4315803641750335
 30
0.0
  0
VERTEX
  5
65E
  8
TEXTBOUND
 10
2866.5770197531887789
 20
1382.4147823981440979
 30
0.0
  0
VERTEX
  5
65F
  8
TEXTBOUND
 10
2864.1845080555208369
 20
1382.4147823981440979
 30
0.0
  0
VERTEX
  5
660
  8
TEXTBOUND
 10
2862.9433926123588208
 20
1387.1773759962979966
 30
0.0
  0
VERTEX
  5
661
  8
TEXTBOUND
 10
2862.8387202255830744
 20
1387.6184953405550004
 30
0.0
  0
VERTEX
  5
662
  8
TEXTBOUND
 10
2862.8536734236981829
 20
1387.3194313783480993
 30
0.0
  0
VERTEX
  5
663
  8
TEXTBOUND
 10
2862.8536734236981829
 20
1382.4147823981440979
 30
0.0
  0
VERTEX
  5
664
  8
TEXTBOUND
 10
2859.7508848157949615
 20
1382.4147823981440979
 30
0.0
  0
SEQEND
  5
665
  8
TEXTBOUND
  0
POLYLINE
  5
359
  8
TEXTBOUND
 66
     1
 10
0.0
 20
0.0
 30
0.0
 70
     1
  0
VERTEX
  5
666
  8
TEXTBOUND
 10
2862.2405923011751838
 20
1390.3474539956989702
 30
0.0
  0
VERTEX
  5
667
  8
TEXTBOUND
 10
2862.7564776359790812
 20
1390.3474539956989702
 30
0.0
  0
VERTEX
  5
668
  8
TEXTBOUND
 10
2864.6405805978861281
 20
1382.9979571244489307
 30
0.0
  0
VERTEX
  5
669
  8
TEXTBOUND
 10
2866.1059940127079244
 20
1382.9979571244489307
 30
0.0
  0
VERTEX
  5
66A
  8
TEXTBOUND
 10
2867.9527139793349306
 20
1390.3474539956989702
 30
0.0
  0
VERTEX
  5
66B
  8
TEXTBOUND
 10
2868.5358887056418098
 20
1390.3474539956989702
 30
0.0
  0
VERTEX
  5
66C
  8
TEXTBOUND
 10
2868.5358887056418098
 20
1382.9979571244489307
 30
0.0
  0
VERTEX
  5
66D
  8
TEXTBOUND
 10
2870.3900852713259155
 20
1382.9979571244489307
 30
0.0
  0
VERTEX
  5
66E
  8
TEXTBOUND
 10
2870.3900852713259155
 20
1391.8278206086249611
 30
0.0
  0
VERTEX
  5
66F
  8
TEXTBOUND
 10
2867.4143988473651916
 20
1391.8278206086249611
 30
0.0
  0
VERTEX
  5
670
  8
TEXTBOUND
 10
2865.3732873052931609
 20
1385.0241154684040339
 30
0.0
  0
VERTEX
  5
671
  8
TEXTBOUND
 10
2863.3396523622859604
 20
1391.8278206086249611
 30
0.0
  0
VERTEX
  5
672
  8
TEXTBOUND
 10
2860.3639659383247817
 20
1391.8278206086249611
 30
0.0
  0
VERTEX
  5
673
  8
TEXTBOUND
 10
2860.3639659383247817
 20
1382.9979571244489307
 30
0.0
  0
VERTEX
  5
674
  8
TEXTBOUND
 10
2862.2405923011751838
 20
1382.9979571244489307
 30
0.0
  0
SEQEND
  5
675
  8
TEXTBOUND
  0
POLYLINE
  5
35A
  8
TEXTBOUND
 66
     1
 10
0.0
 20
0.0
 30
0.0
 70
     1
  0
VERTEX
  5
676
  8
TEXTBOUND
 10
2874.823708511051791
 20
1385.9352402356450966
 30
0.0
  0
VERTEX
  5
677
  8
TEXTBOUND
 10
2874.823708511051791
 20
1386.2268275987969446
 30
0.0
  0
VERTEX
  5
678
  8
TEXTBOUND
 10
2880.1844300336229026
 20
1386.2268275987969446
 30
0.0
  0
VERTEX
  5
679
  8
TEXTBOUND
 10
2880.1246172411838415
 20
1386.9371045090410917
 30
0.0
  0
VERTEX
  5
67A
  8
TEXTBOUND
 10
2879.9750852600768667
 20
1387.5726154287310692
 30
0.0
  0
VERTEX
  5
67B
  8
TEXTBOUND
 10
2879.7208808922000571
 20
1388.1483135559790298
 30
0.0
  0
VERTEX
  5
67C
  8
TEXTBOUND
 10
2879.3694807366041459
 20
1388.6492456926769137
 30
0.0
  0
VERTEX
  5
67D
  8
TEXTBOUND
 10
2879.2199487555030828
 20
1388.8212074709460921
 30
0.0
  0
VERTEX
  5
67E
  8
TEXTBOUND
 10
2878.7489230150308686
 20
1389.2099906218170418
 30
0.0
  0
VERTEX
  5
67F
  8
TEXTBOUND
 10
2878.2106078830538536
 20
1389.5015779849670707
 30
0.0
  0
VERTEX
  5
680
  8
TEXTBOUND
 10
2877.6050033595811328
 20
1389.6959695604039098
 30
0.0
  0
VERTEX
  5
681
  8
TEXTBOUND
 10
2876.9246328455619732
 20
1389.7931653481209651
 30
0.0
  0
VERTEX
  5
682
  8
TEXTBOUND
 10
2876.5657560909157837
 20
1389.8081185462319809
 30
0.0
  0
VERTEX
  5
683
  8
TEXTBOUND
 10
2875.8480025816161287
 20
1389.7557823528459267
 30
0.0
  0
VERTEX
  5
684
  8
TEXTBOUND
 10
2875.197538463813089
 20
1389.621203569852014
 30
0.0
  0
VERTEX
  5
685
  8
TEXTBOUND
 10
2874.6143637375048456
 20
1389.3894289991419555
 30
0.0
  0
VERTEX
  5
686
  8
TEXTBOUND
 10
2874.105955001752136
 20
1389.0604586407130228
 30
0.0
  0
VERTEX
  5
687
  8
TEXTBOUND
 10
2873.8966102282129214
 20
1388.881020263388109
 30
0.0
  0
VERTEX
  5
688
  8
TEXTBOUND
 10
2873.4928738792291369
 20
1388.4174711219670826
 30
0.0
  0
VERTEX
  5
689
  8
TEXTBOUND
 10
2873.201286516071832
 20
1387.8791559899930235
 30
0.0
  0
VERTEX
  5
68A
  8
TEXTBOUND
 10
2873.0068949406481806
 20
1387.266074867467978
 30
0.0
  0
VERTEX
  5
68B
  8
TEXTBOUND
 10
2872.9246523510291809
 20
1386.5782277543910368
 30
0.0
  0
VERTEX
  5
68C
  8
TEXTBOUND
 10
2872.9246523510291809
 20
1386.3688829808450009
 30
0.0
  0
VERTEX
  5
68D
  8
TEXTBOUND
 10
2872.9769885444247848
 20
1385.6660826696570439
 30
0.0
  0
VERTEX
  5
68E
  8
TEXTBOUND
 10
2873.1414737236332257
 20
1385.038048349023029
 30
0.0
  0
VERTEX
  5
68F
  8
TEXTBOUND
 10
2873.4106312896251438
 20
1384.4847800189379541
 30
0.0
  0
VERTEX
  5
690
  8
TEXTBOUND
 10
2873.7994144404938197
 20
1384.0062776794050023
 30
0.0
  0
VERTEX
  5
691
  8
TEXTBOUND
 10
2873.8816570300978128
 20
1383.9165584907439097
 30
0.0
  0
VERTEX
  5
692
  8
TEXTBOUND
 10
2874.3601593696289456
 20
1383.5427285379851128
 30
0.0
  0
VERTEX
  5
693
  8
TEXTBOUND
 10
2874.9134276997201596
 20
1383.2735709719979695
 30
0.0
  0
VERTEX
  5
694
  8
TEXTBOUND
 10
2875.5339854212938917
 20
1383.0941325946730558
 30
0.0
  0
VERTEX
  5
695
  8
TEXTBOUND
 10
2876.2218325343710603
 20
1383.0118900050661068
 30
0.0
  0
VERTEX
  5
696
  8
TEXTBOUND
 10
2876.4835135013040599
 20
1383.0044134060110537
 30
0.0
  0
VERTEX
  5
697
  8
TEXTBOUND
 10
2877.2236968077691017
 20
1383.0417964012870016
 30
0.0
  0
VERTEX
  5
698
  8
TEXTBOUND
 10
2877.8891141236808835
 20
1383.1539453871150727
 30
0.0
  0
VERTEX
  5
699
  8
TEXTBOUND
 10
2878.4648122509311179
 20
1383.3333837644390769
 30
0.0
  0
VERTEX
  5
69A
  8
TEXTBOUND
 10
2878.6965868216420859
 20
1383.4380561512130043
 30
0.0
  0
VERTEX
  5
69B
  8
TEXTBOUND
 10
2879.3171445432230939
 20
1383.8268393020819076
 30
0.0
  0
VERTEX
  5
69C
  8
TEXTBOUND
 10
2879.7283574912498807
 20
1384.2754352453919182
 30
0.0
  0
VERTEX
  5
69D
  8
TEXTBOUND
 10
2879.8330298780269914
 20
1384.462350221773022
 30
0.0
  0
VERTEX
  5
69E
  8
TEXTBOUND
 10
2877.9489269161199445
 20
1384.462350221773022
 30
0.0
  0
VERTEX
  5
69F
  8
TEXTBOUND
 10
2877.4479947794229702
 20
1384.0586138727919661
 30
0.0
  0
VERTEX
  5
6A0
  8
TEXTBOUND
 10
2877.4405181803658706
 20
1384.0586138727919661
 30
0.0
  0
VERTEX
  5
6A1
  8
TEXTBOUND
 10
2876.819960458793048
 20
1383.9016052926340308
 30
0.0
  0
VERTEX
  5
6A2
  8
TEXTBOUND
 10
2876.5956624871319036
 20
1383.886652094523015
 30
0.0
  0
VERTEX
  5
6A3
  8
TEXTBOUND
 10
2875.9152919731118345
 20
1383.9913244812960329
 30
0.0
  0
VERTEX
  5
6A4
  8
TEXTBOUND
 10
2875.3919300392508376
 20
1384.2978650425588967
 30
0.0
  0
VERTEX
  5
6A5
  8
TEXTBOUND
 10
2875.2723044543658943
 20
1384.4249672264979836
 30
0.0
  0
VERTEX
  5
6A6
  8
TEXTBOUND
 10
2874.9807170912090442
 20
1384.9258993631940484
 30
0.0
  0
VERTEX
  5
6A7
  8
TEXTBOUND
 10
2874.8386617091668995
 20
1385.5763634809950418
 30
0.0
  0
SEQEND
  5
6A8
  8
TEXTBOUND
  0
POLYLINE
  5
35B
  8
TEXTBOUND
 66
     1
 10
0.0
 20
0.0
 30
0.0
 70
     1
  0
VERTEX
  5
6A9
  8
TEXTBOUND
 10
2877.5078075718688524
 20
1387.9613985795999724
 30
0.0
  0
VERTEX
  5
6AA
  8
TEXTBOUND
 10
2877.3807053879281739
 20
1388.1109305607019451
 30
0.0
  0
VERTEX
  5
6AB
  8
TEXTBOUND
 10
2876.8423902559579801
 20
1388.3800881266909073
 30
0.0
  0
VERTEX
  5
6AC
  8
TEXTBOUND
 10
2876.5433262937431209
 20
1388.4099945229120294
 30
0.0
  0
VERTEX
  5
6AD
  8
TEXTBOUND
 10
2875.9152919731118345
 20
1388.2380327446430783
 30
0.0
  0
VERTEX
  5
6AE
  8
TEXTBOUND
 10
2875.7582833929550361
 20
1388.0959773625929756
 30
0.0
  0
VERTEX
  5
6AF
  8
TEXTBOUND
 10
2875.4666960298050071
 20
1387.5352324334539844
 30
0.0
  0
VERTEX
  5
6B0
  8
TEXTBOUND
 10
2875.4442662326391655
 20
1387.3408408580201012
 30
0.0
  0
VERTEX
  5
6B1
  8
TEXTBOUND
 10
2877.717152345408067
 20
1387.3408408580201012
 30
0.0
  0
SEQEND
  5
6B2
  8
TEXTBOUND
  0
POLYLINE
  5
35C
  8
TEXTBOUND
 66
     1
 10
0.0
 20
0.0
 30
0.0
 70
     1
  0
VERTEX
  5
6B3
  8
TEXTBOUND
 10
2889.163825498901133
 20
1391.8166544737289314
 30
0.0
  0
VERTEX
  5
6B4
  8
TEXTBOUND
 10
2887.3021523341658394
 20
1391.8166544737289314
 30
0.0
  0
VERTEX
  5
6B5
  8
TEXTBOUND
 10
2887.3021523341658394
 20
1388.2828923389729425
 30
0.0
  0
VERTEX
  5
6B6
  8
TEXTBOUND
 10
2886.7264542069087838
 20
1388.8212074709460921
 30
0.0
  0
VERTEX
  5
6B7
  8
TEXTBOUND
 10
2886.2329986692629973
 20
1389.2324204189819739
 30
0.0
  0
VERTEX
  5
6B8
  8
TEXTBOUND
 10
2885.9339347070631447
 20
1389.4268119944169939
 30
0.0
  0
VERTEX
  5
6B9
  8
TEXTBOUND
 10
2885.3432833816978018
 20
1389.6810163622940308
 30
0.0
  0
VERTEX
  5
6BA
  8
TEXTBOUND
 10
2884.7376788582328118
 20
1389.748305753789964
 30
0.0
  0
VERTEX
  5
6BB
  8
TEXTBOUND
 10
2884.0946913394868716
 20
1389.6735397632380682
 30
0.0
  0
VERTEX
  5
6BC
  8
TEXTBOUND
 10
2883.526469811295101
 20
1389.4268119944169939
 30
0.0
  0
VERTEX
  5
6BD
  8
TEXTBOUND
 10
2883.0330142736488597
 20
1389.0155990463829312
 30
0.0
  0
VERTEX
  5
6BE
  8
TEXTBOUND
 10
2882.8685290944331427
 20
1388.8286840700020548
 30
0.0
  0
VERTEX
  5
6BF
  8
TEXTBOUND
 10
2882.5545119341181817
 20
1388.32775193330599
 30
0.0
  0
VERTEX
  5
6C0
  8
TEXTBOUND
 10
2882.3302139624638585
 20
1387.7445772070000203
 30
0.0
  0
VERTEX
  5
6C1
  8
TEXTBOUND
 10
2882.1956351794638067
 20
1387.0941130891990269
 30
0.0
  0
VERTEX
  5
6C2
  8
TEXTBOUND
 10
2882.1507755851412185
 20
1386.3763595799009636
 30
0.0
  0
VERTEX
  5
6C3
  8
TEXTBOUND
 10
2882.1956351794638067
 20
1385.6436528724921118
 30
0.0
  0
VERTEX
  5
6C4
  8
TEXTBOUND
 10
2882.3302139624638585
 20
1384.9931887546899816
 30
0.0
  0
VERTEX
  5
6C5
  8
TEXTBOUND
 10
2882.5545119341181817
 20
1384.4174906274420209
 30
0.0
  0
VERTEX
  5
6C6
  8
TEXTBOUND
 10
2882.8610524953828644
 20
1383.9240350898000997
 30
0.0
  0
VERTEX
  5
6C7
  8
TEXTBOUND
 10
2883.3320782358559882
 20
1383.4604859483770269
 30
0.0
  0
VERTEX
  5
6C8
  8
TEXTBOUND
 10
2883.8703933678248177
 20
1383.1539453871150727
 30
0.0
  0
VERTEX
  5
6C9
  8
TEXTBOUND
 10
2884.4909510894131017
 20
1383.019366604122979
 30
0.0
  0
VERTEX
  5
6CA
  8
TEXTBOUND
 10
2884.7302022591748027
 20
1383.0044134060110537
 30
0.0
  0
VERTEX
  5
6CB
  8
TEXTBOUND
 10
2885.3731897779280189
 20
1383.0866559956170931
 30
0.0
  0
VERTEX
  5
6CC
  8
TEXTBOUND
 10
2885.986270900451018
 20
1383.3333837644390769
 30
0.0
  0
VERTEX
  5
6CD
  8
TEXTBOUND
 10
2886.1133730843857848
 20
1383.4081497549921096
 30
0.0
  0
VERTEX
  5
6CE
  8
TEXTBOUND
 10
2886.5769222258090849
 20
1383.7371201134210423
 30
0.0
  0
VERTEX
  5
6CF
  8
TEXTBOUND
 10
2887.0778543625051498
 20
1384.1707628586209466
 30
0.0
  0
VERTEX
  5
6D0
  8
TEXTBOUND
 10
2887.5787864992012146
 20
1384.6866481934280273
 30
0.0
  0
VERTEX
  5
6D1
  8
TEXTBOUND
 10
2887.5787864992012146
 20
1382.9979571244489307
 30
0.0
  0
VERTEX
  5
6D2
  8
TEXTBOUND
 10
2889.163825498901133
 20
1382.9979571244489307
 30
0.0
  0
SEQEND
  5
6D3
  8
TEXTBOUND
  0
POLYLINE
  5
35D
  8
TEXTBOUND
 66
     1
 10
0.0
 20
0.0
 30
0.0
 70
     1
  0
VERTEX
  5
6D4
  8
TEXTBOUND
 10
2886.6666414144629016
 20
1387.0642066929779048
 30
0.0
  0
VERTEX
  5
6D5
  8
TEXTBOUND
 10
2886.4872030371398068
 20
1387.4903728391229834
 30
0.0
  0
VERTEX
  5
6D6
  8
TEXTBOUND
 10
2885.9787943013870972
 20
1387.8268197966081061
 30
0.0
  0
VERTEX
  5
6D7
  8
TEXTBOUND
 10
2885.7021601363521768
 20
1387.8567261928269545
 30
0.0
  0
VERTEX
  5
6D8
  8
TEXTBOUND
 10
2885.0890790138209923
 20
1387.6698112164478971
 30
0.0
  0
VERTEX
  5
6D9
  8
TEXTBOUND
 10
2884.9320704336628296
 20
1387.497849438178946
 30
0.0
  0
VERTEX
  5
6DA
  8
TEXTBOUND
 10
2884.7376788582328118
 20
1386.9819641033720927
 30
0.0
  0
VERTEX
  5
6DB
  8
TEXTBOUND
 10
2884.6853426648440291
 20
1386.3240233865139999
 30
0.0
  0
VERTEX
  5
6DC
  8
TEXTBOUND
 10
2884.7675852544562076
 20
1385.6062698772159365
 30
0.0
  0
VERTEX
  5
6DD
  8
TEXTBOUND
 10
2884.9545002308291259
 20
1385.1950569291800548
 30
0.0
  0
VERTEX
  5
6DE
  8
TEXTBOUND
 10
2885.455432367532012
 20
1384.8287035754779026
 30
0.0
  0
VERTEX
  5
6DF
  8
TEXTBOUND
 10
2885.7021601363521768
 20
1384.7987971792570079
 30
0.0
  0
VERTEX
  5
6E0
  8
TEXTBOUND
 10
2886.28533486265178
 20
1385.0081419528009974
 30
0.0
  0
VERTEX
  5
6E1
  8
TEXTBOUND
 10
2886.4572966409241417
 20
1385.1950569291800548
 30
0.0
  0
VERTEX
  5
6E2
  8
TEXTBOUND
 10
2886.6815946125780101
 20
1385.7408486602089397
 30
0.0
  0
VERTEX
  5
6E3
  8
TEXTBOUND
 10
2886.7414074050170711
 20
1386.3240233865139999
 30
0.0
  0
SEQEND
  5
6E4
  8
TEXTBOUND
  0
POLYLINE
  5
35E
  8
TEXTBOUND
 66
     1
 10
0.0
 20
0.0
 30
0.0
 70
     1
  0
VERTEX
  5
6E5
  8
TEXTBOUND
 10
2893.8441765074448995
 20
1391.8251513902760053
 30
0.0
  0
VERTEX
  5
6E6
  8
TEXTBOUND
 10
2891.9152139512070789
 20
1391.8251513902760053
 30
0.0
  0
VERTEX
  5
6E7
  8
TEXTBOUND
 10
2891.9152139512070789
 20
1390.9231521229469308
 30
0.0
  0
VERTEX
  5
6E8
  8
TEXTBOUND
 10
2893.8441765074448995
 20
1390.9231521229469308
 30
0.0
  0
SEQEND
  5
6E9
  8
TEXTBOUND
  0
POLYLINE
  5
35F
  8
TEXTBOUND
 66
     1
 10
0.0
 20
0.0
 30
0.0
 70
     1
  0
VERTEX
  5
6EA
  8
TEXTBOUND
 10
2893.8441765074448995
 20
1389.2932535289180578
 30
0.0
  0
VERTEX
  5
6EB
  8
TEXTBOUND
 10
2891.9152139512070789
 20
1389.2932535289180578
 30
0.0
  0
VERTEX
  5
6EC
  8
TEXTBOUND
 10
2891.9152139512070789
 20
1382.9979571244489307
 30
0.0
  0
VERTEX
  5
6ED
  8
TEXTBOUND
 10
2893.8441765074448995
 20
1382.9979571244489307
 30
0.0
  0
SEQEND
  5
6EE
  8
TEXTBOUND
  0
POLYLINE
  5
360
  8
TEXTBOUND
 66
     1
 10
0.0
 20
0.0
 30
0.0
 70
     1
  0
VERTEX
  5
6EF
  8
TEXTBOUND
 10
2902.0759120672069002
 20
1389.5240077821340492
 30
0.0
  0
VERTEX
  5
6F0
  8
TEXTBOUND
 10
2901.5076905390151296
 20
1389.6810163622940308
 30
0.0
  0
VERTEX
  5
6F1
  8
TEXTBOUND
 10
2900.8048902278228525
 20
1389.7782121500110861
 30
0.0
  0
VERTEX
  5
6F2
  8
TEXTBOUND
 10
2900.0048941289269351
 20
1389.8081185462319809
 30
0.0
  0
VERTEX
  5
6F3
  8
TEXTBOUND
 10
2899.2273278271818526
 20
1389.7707355509548961
 30
0.0
  0
VERTEX
  5
6F4
  8
TEXTBOUND
 10
2898.5469573131631478
 20
1389.6735397632380682
 30
0.0
  0
VERTEX
  5
6F5
  8
TEXTBOUND
 10
2897.9637825868549044
 20
1389.516531183078996
 30
0.0
  0
VERTEX
  5
6F6
  8
TEXTBOUND
 10
2897.5824760350437828
 20
1389.3445694048100449
 30
0.0
  0
VERTEX
  5
6F7
  8
TEXTBOUND
 10
2896.9993013087359941
 20
1388.9184032586649664
 30
0.0
  0
VERTEX
  5
6F8
  8
TEXTBOUND
 10
2896.7226671436937977
 20
1388.4249477210209989
 30
0.0
  0
VERTEX
  5
6F9
  8
TEXTBOUND
 10
2896.6927607474708566
 20
1388.2455093436979041
 30
0.0
  0
VERTEX
  5
6FA
  8
TEXTBOUND
 10
2898.5619105112700709
 20
1388.2455093436979041
 30
0.0
  0
VERTEX
  5
6FB
  8
TEXTBOUND
 10
2898.9656468602552195
 20
1388.7240116832290369
 30
0.0
  0
VERTEX
  5
6FC
  8
TEXTBOUND
 10
2899.0254596526929163
 20
1388.7613946785058943
 30
0.0
  0
VERTEX
  5
6FD
  8
TEXTBOUND
 10
2899.6161109780509832
 20
1388.940833055828989
 30
0.0
  0
VERTEX
  5
6FE
  8
TEXTBOUND
 10
2899.9675111336468945
 20
1388.9632628529959675
 30
0.0
  0
VERTEX
  5
6FF
  8
TEXTBOUND
 10
2900.6628348457811626
 20
1388.8660670652770932
 30
0.0
  0
VERTEX
  5
700
  8
TEXTBOUND
 10
2901.0067584023190648
 20
1388.7015818860650143
 30
0.0
  0
VERTEX
  5
701
  8
TEXTBOUND
 10
2901.3432053597998674
 20
1388.1931731503100309
 30
0.0
  0
VERTEX
  5
702
  8
TEXTBOUND
 10
2901.3731117560150778
 20
1387.8941091881019929
 30
0.0
  0
VERTEX
  5
703
  8
TEXTBOUND
 10
2901.1861967796421595
 20
1387.2810280655789938
 30
0.0
  0
VERTEX
  5
704
  8
TEXTBOUND
 10
2901.0590945957001168
 20
1387.1614024806949601
 30
0.0
  0
VERTEX
  5
705
  8
TEXTBOUND
 10
2900.5955454542850021
 20
1386.96701090525994
 30
0.0
  0
VERTEX
  5
706
  8
TEXTBOUND
 10
2899.8254557516038403
 20
1386.8324321222660274
 30
0.0
  0
VERTEX
  5
707
  8
TEXTBOUND
 10
2899.7207833648199085
 20
1386.817478924155921
 30
0.0
  0
VERTEX
  5
708
  8
TEXTBOUND
 10
2898.7862084829321248
 20
1386.6829001411640547
 30
0.0
  0
VERTEX
  5
709
  8
TEXTBOUND
 10
2898.0235953793007866
 20
1386.540844759113952
 30
0.0
  0
VERTEX
  5
70A
  8
TEXTBOUND
 10
2897.4254674548851654
 20
1386.3763595799009636
 30
0.0
  0
VERTEX
  5
70B
  8
TEXTBOUND
 10
2896.9993013087359941
 20
1386.2118744006850193
 30
0.0
  0
VERTEX
  5
70C
  8
TEXTBOUND
 10
2896.8348161295280079
 20
1386.114678612967964
 30
0.0
  0
VERTEX
  5
70D
  8
TEXTBOUND
 10
2896.438556379594047
 20
1385.6660826696570439
 30
0.0
  0
VERTEX
  5
70E
  8
TEXTBOUND
 10
2896.2665946013289613
 20
1385.0455249480780822
 30
0.0
  0
VERTEX
  5
70F
  8
TEXTBOUND
 10
2896.2591180022709523
 20
1384.8361801745320463
 30
0.0
  0
VERTEX
  5
710
  8
TEXTBOUND
 10
2896.3637903890471534
 20
1384.163286259564984
 30
0.0
  0
VERTEX
  5
711
  8
TEXTBOUND
 10
2896.6703309503059245
 20
1383.632447726645978
 30
0.0
  0
VERTEX
  5
712
  8
TEXTBOUND
 10
2896.8123863323557998
 20
1383.4903923445979217
 30
0.0
  0
VERTEX
  5
713
  8
TEXTBOUND
 10
2897.3133184690591406
 20
1383.1838517833371043
 30
0.0
  0
VERTEX
  5
714
  8
TEXTBOUND
 10
2897.9563059878041713
 20
1383.0268432031768953
 30
0.0
  0
VERTEX
  5
715
  8
TEXTBOUND
 10
2898.360042336782044
 20
1383.0044134060110537
 30
0.0
  0
VERTEX
  5
716
  8
TEXTBOUND
 10
2899.0404128508080248
 20
1383.0567495993980174
 30
0.0
  0
VERTEX
  5
717
  8
TEXTBOUND
 10
2899.6684471714388565
 20
1383.2137581795559527
 30
0.0
  0
VERTEX
  5
718
  8
TEXTBOUND
 10
2899.8254557516038403
 20
1383.2735709719979695
 30
0.0
  0
VERTEX
  5
719
  8
TEXTBOUND
 10
2900.3562942845160251
 20
1383.5352519389309691
 30
0.0
  0
VERTEX
  5
71A
  8
TEXTBOUND
 10
2900.9319924117658047
 20
1383.9090818916899934
 30
0.0
  0
VERTEX
  5
71B
  8
TEXTBOUND
 10
2901.2759159683041617
 20
1384.163286259564984
 30
0.0
  0
VERTEX
  5
71C
  8
TEXTBOUND
 10
2901.5226437371229622
 20
1382.9979571244489307
 30
0.0
  0
VERTEX
  5
71D
  8
TEXTBOUND
 10
2903.3618871047060566
 20
1382.9979571244489307
 30
0.0
  0
VERTEX
  5
71E
  8
TEXTBOUND
 10
2903.2721679160381427
 20
1383.3707667597150248
 30
0.0
  0
VERTEX
  5
71F
  8
TEXTBOUND
 10
2903.2422615198152016
 20
1383.7745031086960807
 30
0.0
  0
VERTEX
  5
720
  8
TEXTBOUND
 10
2903.2422615198152016
 20
1383.9165584907439097
 30
0.0
  0
VERTEX
  5
721
  8
TEXTBOUND
 10
2903.2422615198152016
 20
1387.5875686268409481
 30
0.0
  0
VERTEX
  5
722
  8
TEXTBOUND
 10
2903.1600189302112085
 20
1388.3053221361390115
 30
0.0
  0
VERTEX
  5
723
  8
TEXTBOUND
 10
2902.9207677604417768
 20
1388.8735436643339654
 30
0.0
  0
VERTEX
  5
724
  8
TEXTBOUND
 10
2902.5245080105228226
 20
1389.2922332114249002
 30
0.0
  0
VERTEX
  5
725
  8
TEXTBOUND
 10
2902.5095548124081688
 20
1389.2997098104790439
 30
0.0
  0
SEQEND
  5
726
  8
TEXTBOUND
  0
POLYLINE
  5
361
  8
TEXTBOUND
 66
     1
 10
0.0
 20
0.0
 30
0.0
 70
     1
  0
VERTEX
  5
727
  8
TEXTBOUND
 10
2900.7226476382202236
 20
1385.2100101272910706
 30
0.0
  0
VERTEX
  5
728
  8
TEXTBOUND
 10
2900.7600306334929883
 20
1385.6511294715469376
 30
0.0
  0
VERTEX
  5
729
  8
TEXTBOUND
 10
2900.7600306334929883
 20
1385.8829040422590424
 30
0.0
  0
VERTEX
  5
72A
  8
TEXTBOUND
 10
2900.2441452986890909
 20
1385.6586060706029002
 30
0.0
  0
VERTEX
  5
72B
  8
TEXTBOUND
 10
2899.8030259544389082
 20
1385.538980485717957
 30
0.0
  0
VERTEX
  5
72C
  8
TEXTBOUND
 10
2899.0703192470241447
 20
1385.2473931225690649
 30
0.0
  0
VERTEX
  5
72D
  8
TEXTBOUND
 10
2898.8534978744200998
 20
1384.9184227641399048
 30
0.0
  0
VERTEX
  5
72E
  8
TEXTBOUND
 10
2899.0254596526929163
 20
1384.5371162123249178
 30
0.0
  0
VERTEX
  5
72F
  8
TEXTBOUND
 10
2899.5413449874968137
 20
1384.4025374293300956
 30
0.0
  0
VERTEX
  5
730
  8
TEXTBOUND
 10
2900.2217155015227945
 20
1384.5221630142129925
 30
0.0
  0
VERTEX
  5
731
  8
TEXTBOUND
 10
2900.4684432703429593
 20
1384.6941247924819436
 30
0.0
  0
SEQEND
  5
732
  8
TEXTBOUND
  0
VIEWPORT
  5
36B
 67
     1
  8
0
 10
1011.4767698077220075
 20
514.9027369764653486
 30
0.0
 40
3398.0807495649992234
 41
1359.9480619638750341
 68
     1
 69
     1
1001
ACAD
1000
MVIEW
1002
{
1070
    16
1010
0.0
1020
0.0
1030
0.0
1010
0.0
1020
0.0
1030
1.0
1040
0.0
1040
1359.9480619638750341
1040
1011.4767698077220075
1040
514.9027369764653486
1040
50.0
1040
0.0
1040
0.0
1070
     0
1070
  1000
1070
     1
1070
     1
1070
     0
1070
     0
1070
     0
1070
     0
1040
0.0
1040
0.0
1040
0.0
1040
10.0
1040
10.0
1040
10.0
1040
10.0
1070
     0
1002
{
1002
}
1002
}
  0
VIEWPORT
  5
36F
 67
     1
  8
0
 10
805.2170166729550829
 20
625.6324478492442722
 30
0.0
 40
1666.975657181096949
 41
1361.00230247770196
 68
     2
 69
     2
1001
ACAD
1000
MVIEW
1002
{
1070
    16
1010
0.0
1020
0.0
1030
0.0
1010
0.0
1020
0.0
1030
1.0
1040
0.0
1040
41.3222782077489796
1040
2880.5549667026948555
1040
1386.51001791774911
1040
50.0
1040
0.0
1040
0.0
1070
     0
1070
  1000
1070
     1
1070
     3
1070
     0
1070
     0
1070
     0
1070
     0
1040
0.0
1040
0.0
1040
0.0
1040
10.0
1040
10.0
1040
10.0
1040
10.0
1070
     0
1002
{
1002
}
1002
}
  0
ENDSEC
  0
EOF
