  0
SECTION
  2
HEADER
  9
$ACADVER
  1
AC1014
  9
$HANDSEED
  5
FFFF
  9
$MEASUREMENT
 70
     1
  0
ENDSEC
  0
SECTION
  2
TABLES
  0
TABLE
  2
VPORT
  5
8
330
0
100
AcDbSymbolTable
 70
     4
  0
VPORT
  5
2E
330
8
100
AcDbSymbolTableRecord
100
AcDbViewportTableRecord
  2
*ACTIVE
 70
     0
 10
0.0
 20
0.0
 11
1.0
 21
1.0
 12
210.0
 22
148.5
 13
0.0
 23
0.0
 14
10.0
 24
10.0
 15
10.0
 25
10.0
 16
0.0
 26
0.0
 36
1.0
 17
0.0
 27
0.0
 37
0.0
 40
341.0
 41
1.24
 42
50.0
 43
0.0
 44
0.0
 50
0.0
 51
0.0
 71
     0
 72
   100
 73
     1
 74
     3
 75
     0
 76
     0
 77
     0
 78
     0
  0
ENDTAB
  0
TABLE
  2
LTYPE
  5
5
330
0
100
AcDbSymbolTable
 70
     1
  0
LTYPE
  5
14
330
5
100
AcDbSymbolTableRecord
100
AcDbLinetypeTableRecord
  2
BYBLOCK
 70
     0
  3

 72
    65
 73
     0
 40
0.0
  0
LTYPE
  5
15
330
5
100
AcDbSymbolTableRecord
100
AcDbLinetypeTableRecord
  2
BYLAYER
 70
     0
  3

 72
    65
 73
     0
 40
0.0
  0
LTYPE
  5
16
330
5
100
AcDbSymbolTableRecord
100
AcDbLinetypeTableRecord
  2
CONTINUOUS
 70
     0
  3
Solid line
 72
    65
 73
     0
 40
0.0
  0
ENDTAB
  0
TABLE
  2
LAYER
  5
2
100
AcDbSymbolTable
 70
3
  0
LAYER
  5
50
100
AcDbSymbolTableRecord
100
AcDbLayerTableRecord
  2
0
 70
0
  6
CONTINUOUS
  0
LAYER
  5
51
100
AcDbSymbolTableRecord
100
AcDbLayerTableRecord
  2
textbound
 70
0
  6
CONTINUOUS
  0
LAYER
  5
52
100
AcDbSymbolTableRecord
100
AcDbLayerTableRecord
  2
t
 70
0
  6
CONTINUOUS
  0
ENDTAB
  0
TABLE
  2
STYLE
  5
3
330
0
100
AcDbSymbolTable
 70
     1
  0
STYLE
  5
11
330
3
100
AcDbSymbolTableRecord
100
AcDbTextStyleTableRecord
  2
STANDARD
 70
     0
 40
0.0
 41
1.0
 50
0.0
 71
     0
 42
2.5
  3
txt
  4

  0
ENDTAB
  0
TABLE
  2
VIEW
  5
6
330
0
100
AcDbSymbolTable
 70
     0
  0
ENDTAB
  0
TABLE
  2
UCS
  5
7
330
0
100
AcDbSymbolTable
 70
     0
  0
ENDTAB
  0
TABLE
  2
APPID
  5
9
330
0
100
AcDbSymbolTable
 70
     2
  0
APPID
  5
12
330
9
100
AcDbSymbolTableRecord
100
AcDbRegAppTableRecord
  2
ACAD
 70
     0
  0
ENDTAB
  0
TABLE
  2
DIMSTYLE
  5
A
330
0
100
AcDbSymbolTable
 70
     1
  0
DIMSTYLE
105
27
330
A
100
AcDbSymbolTableRecord
100
AcDbDimStyleTableRecord
  2
ISO-25
 70
     0
  3

  4

  5

  6

  7

 40
1.0
 41
2.5
 42
0.625
 43
3.75
 44
1.25
 45
0.0
 46
0.0
 47
0.0
 48
0.0
140
2.5
141
2.5
142
0.0
143
0.03937007874016
144
1.0
145
0.0
146
1.0
147
0.625
 71
     0
 72
     0
 73
     0
 74
     0
 75
     0
 76
     0
 77
     1
 78
     8
170
     0
171
     3
172
     1
173
     0
174
     0
175
     0
176
     0
177
     0
178
     0
270
     2
271
     2
272
     2
273
     2
274
     3
340
11
275
     0
280
     0
281
     0
282
     0
283
     0
284
     8
285
     0
286
     0
287
     3
288
     0
  0
ENDTAB
  0
TABLE
  2
BLOCK_RECORD
  5
1
330
0
100
AcDbSymbolTable
 70
     1
  0
BLOCK_RECORD
  5
1F
330
1
100
AcDbSymbolTableRecord
100
AcDbBlockTableRecord
  2
*MODEL_SPACE
  0
BLOCK_RECORD
  5
1B
330
1
100
AcDbSymbolTableRecord
100
AcDbBlockTableRecord
  2
*PAPER_SPACE
  0
ENDTAB
  0
ENDSEC
  0
SECTION
  2
BLOCKS
  0
BLOCK
  5
20
330
1F
100
AcDbEntity
  8
0
100
AcDbBlockBegin
  2
*MODEL_SPACE
 70
     0
 10
0.0
 20
0.0
 30
0.0
  3
*MODEL_SPACE
  1

  0
ENDBLK
  5
21
330
1F
100
AcDbEntity
  8
0
100
AcDbBlockEnd
  0
BLOCK
  5
1C
330
1B
100
AcDbEntity
 67
     1
  8
0
100
AcDbBlockBegin
  2
*PAPER_SPACE
  1

  0
ENDBLK
  5
1D
330
1B
100
AcDbEntity
 67
     1
  8
0
100
AcDbBlockEnd
  0
ENDSEC
  0
SECTION
  2
ENTITIES
  0
SPLINE
  5
100
100
AcDbEntity
  8
textbound
 62
6
100
AcDbSpline
 70
8
 71
3
 72
8
 73
4
 74
0
 40
0
 40
0
 40
0
 40
0
 40
1
 40
1
 40
1
 40
1
 10
536.205395
 20
586.356904
 30
0.0
 10
536.205395
 20
603.092455
 30
0.0
 10
527.277085
 20
618.556742
 30
0.0
 10
512.783673
 20
626.924517
 30
0.0
  0
SPLINE
  5
101
100
AcDbEntity
  8
textbound
 62
6
100
AcDbSpline
 70
8
 71
3
 72
8
 73
4
 74
0
 40
0
 40
0
 40
0
 40
0
 40
1
 40
1
 40
1
 40
1
 10
512.783673
 20
626.924517
 30
0.0
 10
498.290260
 20
635.292293
 30
0.0
 10
480.433640
 20
635.292293
 30
0.0
 10
465.940227
 20
626.924517
 30
0.0
  0
SPLINE
  5
102
100
AcDbEntity
  8
textbound
 62
6
100
AcDbSpline
 70
8
 71
3
 72
8
 73
4
 74
0
 40
0
 40
0
 40
0
 40
0
 40
1
 40
1
 40
1
 40
1
 10
465.940227
 20
626.924517
 30
0.0
 10
451.446815
 20
618.556742
 30
0.0
 10
442.518505
 20
603.092455
 30
0.0
 10
442.518506
 20
586.356904
 30
0.0
  0
SPLINE
  5
103
100
AcDbEntity
  8
textbound
 62
6
100
AcDbSpline
 70
8
 71
3
 72
8
 73
4
 74
0
 40
0
 40
0
 40
0
 40
0
 40
1
 40
1
 40
1
 40
1
 10
442.518506
 20
586.356904
 30
0.0
 10
442.518506
 20
569.621353
 30
0.0
 10
451.446816
 20
554.157066
 30
0.0
 10
465.940228
 20
545.789290
 30
0.0
  0
SPLINE
  5
104
100
AcDbEntity
  8
textbound
 62
6
100
AcDbSpline
 70
8
 71
3
 72
8
 73
4
 74
0
 40
0
 40
0
 40
0
 40
0
 40
1
 40
1
 40
1
 40
1
 10
465.940228
 20
545.789290
 30
0.0
 10
480.433641
 20
537.421515
 30
0.0
 10
498.290261
 20
537.421515
 30
0.0
 10
512.783674
 20
545.789290
 30
0.0
  0
SPLINE
  5
105
100
AcDbEntity
  8
textbound
 62
6
100
AcDbSpline
 70
8
 71
3
 72
8
 73
4
 74
0
 40
0
 40
0
 40
0
 40
0
 40
1
 40
1
 40
1
 40
1
 10
512.783674
 20
545.789290
 30
0.0
 10
527.277086
 20
554.157066
 30
0.0
 10
536.205396
 20
569.621353
 30
0.0
 10
536.205396
 20
586.356904
 30
0.0
  0
SPLINE
  5
106
100
AcDbEntity
  8
textbound
 62
6
100
AcDbSpline
 70
8
 71
3
 72
8
 73
4
 74
0
 40
0
 40
0
 40
0
 40
0
 40
1
 40
1
 40
1
 40
1
 10
536.205395
 20
586.356904
 30
0.0
 10
536.205395
 20
603.092455
 30
0.0
 10
527.277085
 20
618.556742
 30
0.0
 10
512.783673
 20
626.924517
 30
0.0
  0
SPLINE
  5
107
100
AcDbEntity
  8
textbound
 62
6
100
AcDbSpline
 70
8
 71
3
 72
8
 73
4
 74
0
 40
0
 40
0
 40
0
 40
0
 40
1
 40
1
 40
1
 40
1
 10
512.783673
 20
626.924517
 30
0.0
 10
498.290260
 20
635.292293
 30
0.0
 10
480.433640
 20
635.292293
 30
0.0
 10
465.940227
 20
626.924517
 30
0.0
  0
SPLINE
  5
108
100
AcDbEntity
  8
textbound
 62
6
100
AcDbSpline
 70
8
 71
3
 72
8
 73
4
 74
0
 40
0
 40
0
 40
0
 40
0
 40
1
 40
1
 40
1
 40
1
 10
465.940227
 20
626.924517
 30
0.0
 10
451.446815
 20
618.556742
 30
0.0
 10
442.518505
 20
603.092455
 30
0.0
 10
442.518506
 20
586.356904
 30
0.0
  0
SPLINE
  5
109
100
AcDbEntity
  8
textbound
 62
6
100
AcDbSpline
 70
8
 71
3
 72
8
 73
4
 74
0
 40
0
 40
0
 40
0
 40
0
 40
1
 40
1
 40
1
 40
1
 10
442.518506
 20
586.356904
 30
0.0
 10
442.518506
 20
569.621353
 30
0.0
 10
451.446816
 20
554.157066
 30
0.0
 10
465.940228
 20
545.789290
 30
0.0
  0
SPLINE
  5
10a
100
AcDbEntity
  8
textbound
 62
6
100
AcDbSpline
 70
8
 71
3
 72
8
 73
4
 74
0
 40
0
 40
0
 40
0
 40
0
 40
1
 40
1
 40
1
 40
1
 10
465.940228
 20
545.789290
 30
0.0
 10
480.433641
 20
537.421515
 30
0.0
 10
498.290261
 20
537.421515
 30
0.0
 10
512.783674
 20
545.789290
 30
0.0
  0
SPLINE
  5
10b
100
AcDbEntity
  8
textbound
 62
6
100
AcDbSpline
 70
8
 71
3
 72
8
 73
4
 74
0
 40
0
 40
0
 40
0
 40
0
 40
1
 40
1
 40
1
 40
1
 10
512.783674
 20
545.789290
 30
0.0
 10
527.277086
 20
554.157066
 30
0.0
 10
536.205396
 20
569.621353
 30
0.0
 10
536.205396
 20
586.356904
 30
0.0
  0
SPLINE
  5
10c
100
AcDbEntity
  8
textbound
 62
6
100
AcDbSpline
 70
8
 71
3
 72
8
 73
4
 74
0
 40
0
 40
0
 40
0
 40
0
 40
1
 40
1
 40
1
 40
1
 10
435.826583
 20
686.735719
 30
0.0
 10
435.830818
 20
703.474093
 30
0.0
 10
426.903435
 20
718.942801
 30
0.0
 10
412.408283
 20
727.313211
 30
0.0
  0
SPLINE
  5
10d
100
AcDbEntity
  8
textbound
 62
6
100
AcDbSpline
 70
8
 71
3
 72
8
 73
4
 74
0
 40
0
 40
0
 40
0
 40
0
 40
1
 40
1
 40
1
 40
1
 10
412.408283
 20
727.313211
 30
0.0
 10
397.913132
 20
735.683621
 30
0.0
 10
380.053146
 20
735.683621
 30
0.0
 10
365.557994
 20
727.313211
 30
0.0
  0
SPLINE
  5
10e
100
AcDbEntity
  8
textbound
 62
6
100
AcDbSpline
 70
8
 71
3
 72
8
 73
4
 74
0
 40
0
 40
0
 40
0
 40
0
 40
1
 40
1
 40
1
 40
1
 10
365.557994
 20
727.313211
 30
0.0
 10
351.062843
 20
718.942801
 30
0.0
 10
342.135459
 20
703.474093
 30
0.0
 10
342.139695
 20
686.735719
 30
0.0
  0
SPLINE
  5
10f
100
AcDbEntity
  8
textbound
 62
6
100
AcDbSpline
 70
8
 71
3
 72
8
 73
4
 74
0
 40
0
 40
0
 40
0
 40
0
 40
1
 40
1
 40
1
 40
1
 10
342.139695
 20
686.735719
 30
0.0
 10
342.135459
 20
669.997345
 30
0.0
 10
351.062843
 20
654.528637
 30
0.0
 10
365.557994
 20
646.158227
 30
0.0
  0
SPLINE
  5
110
100
AcDbEntity
  8
textbound
 62
6
100
AcDbSpline
 70
8
 71
3
 72
8
 73
4
 74
0
 40
0
 40
0
 40
0
 40
0
 40
1
 40
1
 40
1
 40
1
 10
365.557994
 20
646.158227
 30
0.0
 10
380.053146
 20
637.787816
 30
0.0
 10
397.913132
 20
637.787816
 30
0.0
 10
412.408283
 20
646.158227
 30
0.0
  0
SPLINE
  5
111
100
AcDbEntity
  8
textbound
 62
6
100
AcDbSpline
 70
8
 71
3
 72
8
 73
4
 74
0
 40
0
 40
0
 40
0
 40
0
 40
1
 40
1
 40
1
 40
1
 10
412.408283
 20
646.158227
 30
0.0
 10
426.903435
 20
654.528637
 30
0.0
 10
435.830818
 20
669.997345
 30
0.0
 10
435.826583
 20
686.735719
 30
0.0
  0
LWPOLYLINE
  5
112
100
AcDbEntity
  8
textbound
 62
6
100
AcDbPolyline
 90
2
 70
1
 10
536.205396
 20
586.356904
 30
0.0
 10
536.205398
 20
586.356904
 30
0.0
  0
SPLINE
  5
113
100
AcDbEntity
  8
textbound
 62
6
100
AcDbSpline
 70
8
 71
3
 72
8
 73
4
 74
0
 40
0
 40
0
 40
0
 40
0
 40
1
 40
1
 40
1
 40
1
 10
335.447773
 20
686.735719
 30
0.0
 10
335.447773
 20
703.471270
 30
0.0
 10
326.519463
 20
718.935557
 30
0.0
 10
312.026050
 20
727.303332
 30
0.0
  0
SPLINE
  5
114
100
AcDbEntity
  8
textbound
 62
6
100
AcDbSpline
 70
8
 71
3
 72
8
 73
4
 74
0
 40
0
 40
0
 40
0
 40
0
 40
1
 40
1
 40
1
 40
1
 10
312.026050
 20
727.303332
 30
0.0
 10
297.532638
 20
735.671108
 30
0.0
 10
279.676017
 20
735.671108
 30
0.0
 10
265.182605
 20
727.303332
 30
0.0
  0
SPLINE
  5
115
100
AcDbEntity
  8
textbound
 62
6
100
AcDbSpline
 70
8
 71
3
 72
8
 73
4
 74
0
 40
0
 40
0
 40
0
 40
0
 40
1
 40
1
 40
1
 40
1
 10
265.182605
 20
727.303332
 30
0.0
 10
250.689192
 20
718.935557
 30
0.0
 10
241.760882
 20
703.471270
 30
0.0
 10
241.760883
 20
686.735719
 30
0.0
  0
SPLINE
  5
116
100
AcDbEntity
  8
textbound
 62
6
100
AcDbSpline
 70
8
 71
3
 72
8
 73
4
 74
0
 40
0
 40
0
 40
0
 40
0
 40
1
 40
1
 40
1
 40
1
 10
241.760883
 20
686.735719
 30
0.0
 10
241.760883
 20
670.000168
 30
0.0
 10
250.689194
 20
654.535881
 30
0.0
 10
265.182606
 20
646.168105
 30
0.0
  0
SPLINE
  5
117
100
AcDbEntity
  8
textbound
 62
6
100
AcDbSpline
 70
8
 71
3
 72
8
 73
4
 74
0
 40
0
 40
0
 40
0
 40
0
 40
1
 40
1
 40
1
 40
1
 10
265.182606
 20
646.168105
 30
0.0
 10
279.676018
 20
637.800330
 30
0.0
 10
297.532639
 20
637.800330
 30
0.0
 10
312.026051
 20
646.168105
 30
0.0
  0
SPLINE
  5
118
100
AcDbEntity
  8
textbound
 62
6
100
AcDbSpline
 70
8
 71
3
 72
8
 73
4
 74
0
 40
0
 40
0
 40
0
 40
0
 40
1
 40
1
 40
1
 40
1
 10
312.026051
 20
646.168105
 30
0.0
 10
326.519464
 20
654.535881
 30
0.0
 10
335.447774
 20
670.000168
 30
0.0
 10
335.447774
 20
686.735719
 30
0.0
  0
LWPOLYLINE
  5
119
100
AcDbEntity
  8
textbound
 62
6
100
AcDbPolyline
 90
1
 70
1
 10
435.826583
 20
686.735719
 30
0.0
  0
SPLINE
  5
11a
100
AcDbEntity
  8
textbound
 62
6
100
AcDbSpline
 70
8
 71
3
 72
8
 73
4
 74
0
 40
0
 40
0
 40
0
 40
0
 40
1
 40
1
 40
1
 40
1
 10
235.068960
 20
686.735719
 30
0.0
 10
235.073196
 20
703.474093
 30
0.0
 10
226.145812
 20
718.942801
 30
0.0
 10
211.650661
 20
727.313211
 30
0.0
  0
SPLINE
  5
11b
100
AcDbEntity
  8
textbound
 62
6
100
AcDbSpline
 70
8
 71
3
 72
8
 73
4
 74
0
 40
0
 40
0
 40
0
 40
0
 40
1
 40
1
 40
1
 40
1
 10
211.650661
 20
727.313211
 30
0.0
 10
197.155509
 20
735.683621
 30
0.0
 10
179.295523
 20
735.683621
 30
0.0
 10
164.800372
 20
727.313211
 30
0.0
  0
SPLINE
  5
11c
100
AcDbEntity
  8
textbound
 62
6
100
AcDbSpline
 70
8
 71
3
 72
8
 73
4
 74
0
 40
0
 40
0
 40
0
 40
0
 40
1
 40
1
 40
1
 40
1
 10
164.800372
 20
727.313211
 30
0.0
 10
150.305220
 20
718.942801
 30
0.0
 10
141.377837
 20
703.474093
 30
0.0
 10
141.382072
 20
686.735719
 30
0.0
  0
SPLINE
  5
11d
100
AcDbEntity
  8
textbound
 62
6
100
AcDbSpline
 70
8
 71
3
 72
8
 73
4
 74
0
 40
0
 40
0
 40
0
 40
0
 40
1
 40
1
 40
1
 40
1
 10
141.382072
 20
686.735719
 30
0.0
 10
141.376884
 20
669.996710
 30
0.0
 10
150.304059
 20
654.527008
 30
0.0
 10
164.799602
 20
646.156006
 30
0.0
  0
SPLINE
  5
11e
100
AcDbEntity
  8
textbound
 62
6
100
AcDbSpline
 70
8
 71
3
 72
8
 73
4
 74
0
 40
0
 40
0
 40
0
 40
0
 40
1
 40
1
 40
1
 40
1
 10
164.799602
 20
646.156006
 30
0.0
 10
179.295145
 20
637.785003
 30
0.0
 10
197.155888
 20
637.785003
 30
0.0
 10
211.651430
 20
646.156006
 30
0.0
  0
SPLINE
  5
11f
100
AcDbEntity
  8
textbound
 62
6
100
AcDbSpline
 70
8
 71
3
 72
8
 73
4
 74
0
 40
0
 40
0
 40
0
 40
0
 40
1
 40
1
 40
1
 40
1
 10
211.651430
 20
646.156006
 30
0.0
 10
226.146973
 20
654.527008
 30
0.0
 10
235.074148
 20
669.996710
 30
0.0
 10
235.068960
 20
686.735719
 30
0.0
  0
LWPOLYLINE
  5
120
100
AcDbEntity
  8
textbound
 62
6
100
AcDbPolyline
 90
1
 70
1
 10
335.447774
 20
686.735719
 30
0.0
  0
SPLINE
  5
121
100
AcDbEntity
  8
textbound
 62
6
100
AcDbSpline
 70
8
 71
3
 72
8
 73
4
 74
0
 40
0
 40
0
 40
0
 40
0
 40
1
 40
1
 40
1
 40
1
 10
134.690151
 20
586.356904
 30
0.0
 10
134.690151
 20
603.092455
 30
0.0
 10
125.761841
 20
618.556742
 30
0.0
 10
111.268428
 20
626.924518
 30
0.0
  0
SPLINE
  5
122
100
AcDbEntity
  8
textbound
 62
6
100
AcDbSpline
 70
8
 71
3
 72
8
 73
4
 74
0
 40
0
 40
0
 40
0
 40
0
 40
1
 40
1
 40
1
 40
1
 10
111.268428
 20
626.924518
 30
0.0
 10
96.775016
 20
635.292294
 30
0.0
 10
78.918395
 20
635.292294
 30
0.0
 10
64.424982
 20
626.924518
 30
0.0
  0
SPLINE
  5
123
100
AcDbEntity
  8
textbound
 62
6
100
AcDbSpline
 70
8
 71
3
 72
8
 73
4
 74
0
 40
0
 40
0
 40
0
 40
0
 40
1
 40
1
 40
1
 40
1
 10
64.424982
 20
626.924518
 30
0.0
 10
49.931570
 20
618.556742
 30
0.0
 10
41.003259
 20
603.092455
 30
0.0
 10
41.003261
 20
586.356904
 30
0.0
  0
SPLINE
  5
124
100
AcDbEntity
  8
textbound
 62
6
100
AcDbSpline
 70
8
 71
3
 72
8
 73
4
 74
0
 40
0
 40
0
 40
0
 40
0
 40
1
 40
1
 40
1
 40
1
 10
41.003261
 20
586.356904
 30
0.0
 10
41.003261
 20
569.621353
 30
0.0
 10
49.931571
 20
554.157066
 30
0.0
 10
64.424983
 20
545.789290
 30
0.0
  0
SPLINE
  5
125
100
AcDbEntity
  8
textbound
 62
6
100
AcDbSpline
 70
8
 71
3
 72
8
 73
4
 74
0
 40
0
 40
0
 40
0
 40
0
 40
1
 40
1
 40
1
 40
1
 10
64.424983
 20
545.789290
 30
0.0
 10
78.918396
 20
537.421515
 30
0.0
 10
96.775016
 20
537.421515
 30
0.0
 10
111.268429
 20
545.789290
 30
0.0
  0
SPLINE
  5
126
100
AcDbEntity
  8
textbound
 62
6
100
AcDbSpline
 70
8
 71
3
 72
8
 73
4
 74
0
 40
0
 40
0
 40
0
 40
0
 40
1
 40
1
 40
1
 40
1
 10
111.268429
 20
545.789290
 30
0.0
 10
125.761841
 20
554.157066
 30
0.0
 10
134.690151
 20
569.621353
 30
0.0
 10
134.690151
 20
586.356904
 30
0.0
  0
LWPOLYLINE
  5
127
100
AcDbEntity
  8
textbound
 62
6
100
AcDbPolyline
 90
1
 70
1
 10
235.068960
 20
686.735719
 30
0.0
  0
SPLINE
  5
128
100
AcDbEntity
  8
textbound
 62
6
100
AcDbSpline
 70
8
 71
3
 72
8
 73
4
 74
0
 40
0
 40
0
 40
0
 40
0
 40
1
 40
1
 40
1
 40
1
 10
134.690151
 20
485.978096
 30
0.0
 10
134.690151
 20
502.713648
 30
0.0
 10
125.761841
 20
518.177935
 30
0.0
 10
111.268428
 20
526.545711
 30
0.0
  0
SPLINE
  5
129
100
AcDbEntity
  8
textbound
 62
6
100
AcDbSpline
 70
8
 71
3
 72
8
 73
4
 74
0
 40
0
 40
0
 40
0
 40
0
 40
1
 40
1
 40
1
 40
1
 10
111.268428
 20
526.545711
 30
0.0
 10
96.775016
 20
534.913486
 30
0.0
 10
78.918395
 20
534.913486
 30
0.0
 10
64.424982
 20
526.545711
 30
0.0
  0
SPLINE
  5
12a
100
AcDbEntity
  8
textbound
 62
6
100
AcDbSpline
 70
8
 71
3
 72
8
 73
4
 74
0
 40
0
 40
0
 40
0
 40
0
 40
1
 40
1
 40
1
 40
1
 10
64.424982
 20
526.545711
 30
0.0
 10
49.931570
 20
518.177935
 30
0.0
 10
41.003259
 20
502.713648
 30
0.0
 10
41.003261
 20
485.978096
 30
0.0
  0
SPLINE
  5
12b
100
AcDbEntity
  8
textbound
 62
6
100
AcDbSpline
 70
8
 71
3
 72
8
 73
4
 74
0
 40
0
 40
0
 40
0
 40
0
 40
1
 40
1
 40
1
 40
1
 10
41.003261
 20
485.978096
 30
0.0
 10
41.003261
 20
469.242545
 30
0.0
 10
49.931571
 20
453.778258
 30
0.0
 10
64.424983
 20
445.410483
 30
0.0
  0
SPLINE
  5
12c
100
AcDbEntity
  8
textbound
 62
6
100
AcDbSpline
 70
8
 71
3
 72
8
 73
4
 74
0
 40
0
 40
0
 40
0
 40
0
 40
1
 40
1
 40
1
 40
1
 10
64.424983
 20
445.410483
 30
0.0
 10
78.918396
 20
437.042707
 30
0.0
 10
96.775016
 20
437.042707
 30
0.0
 10
111.268429
 20
445.410483
 30
0.0
  0
SPLINE
  5
12d
100
AcDbEntity
  8
textbound
 62
6
100
AcDbSpline
 70
8
 71
3
 72
8
 73
4
 74
0
 40
0
 40
0
 40
0
 40
0
 40
1
 40
1
 40
1
 40
1
 10
111.268429
 20
445.410483
 30
0.0
 10
125.761841
 20
453.778258
 30
0.0
 10
134.690151
 20
469.242545
 30
0.0
 10
134.690151
 20
485.978096
 30
0.0
  0
LWPOLYLINE
  5
12e
100
AcDbEntity
  8
textbound
 62
6
100
AcDbPolyline
 90
1
 70
1
 10
134.690151
 20
586.356904
 30
0.0
  0
SPLINE
  5
12f
100
AcDbEntity
  8
textbound
 62
6
100
AcDbSpline
 70
8
 71
3
 72
8
 73
4
 74
0
 40
0
 40
0
 40
0
 40
0
 40
1
 40
1
 40
1
 40
1
 10
235.068960
 20
385.599281
 30
0.0
 10
235.073196
 20
402.337655
 30
0.0
 10
226.145812
 20
417.806363
 30
0.0
 10
211.650661
 20
426.176774
 30
0.0
  0
SPLINE
  5
130
100
AcDbEntity
  8
textbound
 62
6
100
AcDbSpline
 70
8
 71
3
 72
8
 73
4
 74
0
 40
0
 40
0
 40
0
 40
0
 40
1
 40
1
 40
1
 40
1
 10
211.650661
 20
426.176774
 30
0.0
 10
197.155509
 20
434.547184
 30
0.0
 10
179.295523
 20
434.547184
 30
0.0
 10
164.800372
 20
426.176774
 30
0.0
  0
SPLINE
  5
131
100
AcDbEntity
  8
textbound
 62
6
100
AcDbSpline
 70
8
 71
3
 72
8
 73
4
 74
0
 40
0
 40
0
 40
0
 40
0
 40
1
 40
1
 40
1
 40
1
 10
164.800372
 20
426.176774
 30
0.0
 10
150.305220
 20
417.806363
 30
0.0
 10
141.377837
 20
402.337655
 30
0.0
 10
141.382072
 20
385.599281
 30
0.0
  0
SPLINE
  5
132
100
AcDbEntity
  8
textbound
 62
6
100
AcDbSpline
 70
8
 71
3
 72
8
 73
4
 74
0
 40
0
 40
0
 40
0
 40
0
 40
1
 40
1
 40
1
 40
1
 10
141.382072
 20
385.599281
 30
0.0
 10
141.376884
 20
368.860273
 30
0.0
 10
150.304059
 20
353.390571
 30
0.0
 10
164.799602
 20
345.019568
 30
0.0
  0
SPLINE
  5
133
100
AcDbEntity
  8
textbound
 62
6
100
AcDbSpline
 70
8
 71
3
 72
8
 73
4
 74
0
 40
0
 40
0
 40
0
 40
0
 40
1
 40
1
 40
1
 40
1
 10
164.799602
 20
345.019568
 30
0.0
 10
179.295145
 20
336.648566
 30
0.0
 10
197.155888
 20
336.648566
 30
0.0
 10
211.651430
 20
345.019568
 30
0.0
  0
SPLINE
  5
134
100
AcDbEntity
  8
textbound
 62
6
100
AcDbSpline
 70
8
 71
3
 72
8
 73
4
 74
0
 40
0
 40
0
 40
0
 40
0
 40
1
 40
1
 40
1
 40
1
 10
211.651430
 20
345.019568
 30
0.0
 10
226.146973
 20
353.390571
 30
0.0
 10
235.074148
 20
368.860273
 30
0.0
 10
235.068960
 20
385.599281
 30
0.0
  0
LWPOLYLINE
  5
135
100
AcDbEntity
  8
textbound
 62
6
100
AcDbPolyline
 90
1
 70
1
 10
134.690151
 20
485.978096
 30
0.0
  0
SPLINE
  5
136
100
AcDbEntity
  8
textbound
 62
6
100
AcDbSpline
 70
8
 71
3
 72
8
 73
4
 74
0
 40
0
 40
0
 40
0
 40
0
 40
1
 40
1
 40
1
 40
1
 10
335.447773
 20
385.599281
 30
0.0
 10
335.447773
 20
402.334832
 30
0.0
 10
326.519463
 20
417.799119
 30
0.0
 10
312.026050
 20
426.166895
 30
0.0
  0
SPLINE
  5
137
100
AcDbEntity
  8
textbound
 62
6
100
AcDbSpline
 70
8
 71
3
 72
8
 73
4
 74
0
 40
0
 40
0
 40
0
 40
0
 40
1
 40
1
 40
1
 40
1
 10
312.026050
 20
426.166895
 30
0.0
 10
297.532638
 20
434.534670
 30
0.0
 10
279.676017
 20
434.534670
 30
0.0
 10
265.182605
 20
426.166895
 30
0.0
  0
SPLINE
  5
138
100
AcDbEntity
  8
textbound
 62
6
100
AcDbSpline
 70
8
 71
3
 72
8
 73
4
 74
0
 40
0
 40
0
 40
0
 40
0
 40
1
 40
1
 40
1
 40
1
 10
265.182605
 20
426.166895
 30
0.0
 10
250.689192
 20
417.799119
 30
0.0
 10
241.760882
 20
402.334832
 30
0.0
 10
241.760883
 20
385.599281
 30
0.0
  0
SPLINE
  5
139
100
AcDbEntity
  8
textbound
 62
6
100
AcDbSpline
 70
8
 71
3
 72
8
 73
4
 74
0
 40
0
 40
0
 40
0
 40
0
 40
1
 40
1
 40
1
 40
1
 10
241.760883
 20
385.599281
 30
0.0
 10
241.760883
 20
368.863730
 30
0.0
 10
250.689194
 20
353.399443
 30
0.0
 10
265.182606
 20
345.031668
 30
0.0
  0
SPLINE
  5
13a
100
AcDbEntity
  8
textbound
 62
6
100
AcDbSpline
 70
8
 71
3
 72
8
 73
4
 74
0
 40
0
 40
0
 40
0
 40
0
 40
1
 40
1
 40
1
 40
1
 10
265.182606
 20
345.031668
 30
0.0
 10
279.676018
 20
336.663892
 30
0.0
 10
297.532639
 20
336.663892
 30
0.0
 10
312.026051
 20
345.031668
 30
0.0
  0
SPLINE
  5
13b
100
AcDbEntity
  8
textbound
 62
6
100
AcDbSpline
 70
8
 71
3
 72
8
 73
4
 74
0
 40
0
 40
0
 40
0
 40
0
 40
1
 40
1
 40
1
 40
1
 10
312.026051
 20
345.031668
 30
0.0
 10
326.519464
 20
353.399443
 30
0.0
 10
335.447774
 20
368.863730
 30
0.0
 10
335.447774
 20
385.599281
 30
0.0
  0
LWPOLYLINE
  5
13c
100
AcDbEntity
  8
textbound
 62
6
100
AcDbPolyline
 90
1
 70
1
 10
235.068960
 20
385.599281
 30
0.0
  0
SPLINE
  5
13d
100
AcDbEntity
  8
textbound
 62
6
100
AcDbSpline
 70
8
 71
3
 72
8
 73
4
 74
0
 40
0
 40
0
 40
0
 40
0
 40
1
 40
1
 40
1
 40
1
 10
435.826583
 20
385.599281
 30
0.0
 10
435.830818
 20
402.337655
 30
0.0
 10
426.903435
 20
417.806363
 30
0.0
 10
412.408283
 20
426.176774
 30
0.0
  0
SPLINE
  5
13e
100
AcDbEntity
  8
textbound
 62
6
100
AcDbSpline
 70
8
 71
3
 72
8
 73
4
 74
0
 40
0
 40
0
 40
0
 40
0
 40
1
 40
1
 40
1
 40
1
 10
412.408283
 20
426.176774
 30
0.0
 10
397.913132
 20
434.547184
 30
0.0
 10
380.053146
 20
434.547184
 30
0.0
 10
365.557994
 20
426.176774
 30
0.0
  0
SPLINE
  5
13f
100
AcDbEntity
  8
textbound
 62
6
100
AcDbSpline
 70
8
 71
3
 72
8
 73
4
 74
0
 40
0
 40
0
 40
0
 40
0
 40
1
 40
1
 40
1
 40
1
 10
365.557994
 20
426.176774
 30
0.0
 10
351.062843
 20
417.806363
 30
0.0
 10
342.135459
 20
402.337655
 30
0.0
 10
342.139695
 20
385.599281
 30
0.0
  0
SPLINE
  5
140
100
AcDbEntity
  8
textbound
 62
6
100
AcDbSpline
 70
8
 71
3
 72
8
 73
4
 74
0
 40
0
 40
0
 40
0
 40
0
 40
1
 40
1
 40
1
 40
1
 10
342.139695
 20
385.599281
 30
0.0
 10
342.135459
 20
368.860907
 30
0.0
 10
351.062843
 20
353.392199
 30
0.0
 10
365.557994
 20
345.021789
 30
0.0
  0
SPLINE
  5
141
100
AcDbEntity
  8
textbound
 62
6
100
AcDbSpline
 70
8
 71
3
 72
8
 73
4
 74
0
 40
0
 40
0
 40
0
 40
0
 40
1
 40
1
 40
1
 40
1
 10
365.557994
 20
345.021789
 30
0.0
 10
380.053146
 20
336.651379
 30
0.0
 10
397.913132
 20
336.651379
 30
0.0
 10
412.408283
 20
345.021789
 30
0.0
  0
SPLINE
  5
142
100
AcDbEntity
  8
textbound
 62
6
100
AcDbSpline
 70
8
 71
3
 72
8
 73
4
 74
0
 40
0
 40
0
 40
0
 40
0
 40
1
 40
1
 40
1
 40
1
 10
412.408283
 20
345.021789
 30
0.0
 10
426.903435
 20
353.392199
 30
0.0
 10
435.830818
 20
368.860907
 30
0.0
 10
435.826583
 20
385.599281
 30
0.0
  0
LWPOLYLINE
  5
143
100
AcDbEntity
  8
textbound
 62
6
100
AcDbPolyline
 90
1
 70
1
 10
335.447774
 20
385.599281
 30
0.0
  0
SPLINE
  5
144
100
AcDbEntity
  8
textbound
 62
6
100
AcDbSpline
 70
8
 71
3
 72
8
 73
4
 74
0
 40
0
 40
0
 40
0
 40
0
 40
1
 40
1
 40
1
 40
1
 10
536.205395
 20
285.220474
 30
0.0
 10
536.205395
 20
301.956025
 30
0.0
 10
527.277085
 20
317.420312
 30
0.0
 10
512.783673
 20
325.788087
 30
0.0
  0
SPLINE
  5
145
100
AcDbEntity
  8
textbound
 62
6
100
AcDbSpline
 70
8
 71
3
 72
8
 73
4
 74
0
 40
0
 40
0
 40
0
 40
0
 40
1
 40
1
 40
1
 40
1
 10
512.783673
 20
325.788087
 30
0.0
 10
498.290260
 20
334.155863
 30
0.0
 10
480.433640
 20
334.155863
 30
0.0
 10
465.940227
 20
325.788087
 30
0.0
  0
SPLINE
  5
146
100
AcDbEntity
  8
textbound
 62
6
100
AcDbSpline
 70
8
 71
3
 72
8
 73
4
 74
0
 40
0
 40
0
 40
0
 40
0
 40
1
 40
1
 40
1
 40
1
 10
465.940227
 20
325.788087
 30
0.0
 10
451.446815
 20
317.420312
 30
0.0
 10
442.518505
 20
301.956025
 30
0.0
 10
442.518506
 20
285.220474
 30
0.0
  0
SPLINE
  5
147
100
AcDbEntity
  8
textbound
 62
6
100
AcDbSpline
 70
8
 71
3
 72
8
 73
4
 74
0
 40
0
 40
0
 40
0
 40
0
 40
1
 40
1
 40
1
 40
1
 10
442.518506
 20
285.220474
 30
0.0
 10
442.518506
 20
268.484923
 30
0.0
 10
451.446816
 20
253.020636
 30
0.0
 10
465.940228
 20
244.652860
 30
0.0
  0
SPLINE
  5
148
100
AcDbEntity
  8
textbound
 62
6
100
AcDbSpline
 70
8
 71
3
 72
8
 73
4
 74
0
 40
0
 40
0
 40
0
 40
0
 40
1
 40
1
 40
1
 40
1
 10
465.940228
 20
244.652860
 30
0.0
 10
480.433641
 20
236.285085
 30
0.0
 10
498.290261
 20
236.285085
 30
0.0
 10
512.783674
 20
244.652860
 30
0.0
  0
SPLINE
  5
149
100
AcDbEntity
  8
textbound
 62
6
100
AcDbSpline
 70
8
 71
3
 72
8
 73
4
 74
0
 40
0
 40
0
 40
0
 40
0
 40
1
 40
1
 40
1
 40
1
 10
512.783674
 20
244.652860
 30
0.0
 10
527.277086
 20
253.020636
 30
0.0
 10
536.205396
 20
268.484923
 30
0.0
 10
536.205396
 20
285.220474
 30
0.0
  0
LWPOLYLINE
  5
14a
100
AcDbEntity
  8
textbound
 62
6
100
AcDbPolyline
 90
1
 70
1
 10
435.826583
 20
385.599281
 30
0.0
  0
SPLINE
  5
14b
100
AcDbEntity
  8
textbound
 62
6
100
AcDbSpline
 70
8
 71
3
 72
8
 73
4
 74
0
 40
0
 40
0
 40
0
 40
0
 40
1
 40
1
 40
1
 40
1
 10
536.205395
 20
184.841659
 30
0.0
 10
536.205395
 20
201.577210
 30
0.0
 10
527.277085
 20
217.041497
 30
0.0
 10
512.783673
 20
225.409272
 30
0.0
  0
SPLINE
  5
14c
100
AcDbEntity
  8
textbound
 62
6
100
AcDbSpline
 70
8
 71
3
 72
8
 73
4
 74
0
 40
0
 40
0
 40
0
 40
0
 40
1
 40
1
 40
1
 40
1
 10
512.783673
 20
225.409272
 30
0.0
 10
498.290260
 20
233.777048
 30
0.0
 10
480.433640
 20
233.777048
 30
0.0
 10
465.940227
 20
225.409272
 30
0.0
  0
SPLINE
  5
14d
100
AcDbEntity
  8
textbound
 62
6
100
AcDbSpline
 70
8
 71
3
 72
8
 73
4
 74
0
 40
0
 40
0
 40
0
 40
0
 40
1
 40
1
 40
1
 40
1
 10
465.940227
 20
225.409272
 30
0.0
 10
451.446815
 20
217.041497
 30
0.0
 10
442.518505
 20
201.577210
 30
0.0
 10
442.518506
 20
184.841659
 30
0.0
  0
SPLINE
  5
14e
100
AcDbEntity
  8
textbound
 62
6
100
AcDbSpline
 70
8
 71
3
 72
8
 73
4
 74
0
 40
0
 40
0
 40
0
 40
0
 40
1
 40
1
 40
1
 40
1
 10
442.518506
 20
184.841659
 30
0.0
 10
442.518506
 20
168.106108
 30
0.0
 10
451.446816
 20
152.641821
 30
0.0
 10
465.940228
 20
144.274045
 30
0.0
  0
SPLINE
  5
14f
100
AcDbEntity
  8
textbound
 62
6
100
AcDbSpline
 70
8
 71
3
 72
8
 73
4
 74
0
 40
0
 40
0
 40
0
 40
0
 40
1
 40
1
 40
1
 40
1
 10
465.940228
 20
144.274045
 30
0.0
 10
480.433641
 20
135.906270
 30
0.0
 10
498.290261
 20
135.906270
 30
0.0
 10
512.783674
 20
144.274045
 30
0.0
  0
SPLINE
  5
150
100
AcDbEntity
  8
textbound
 62
6
100
AcDbSpline
 70
8
 71
3
 72
8
 73
4
 74
0
 40
0
 40
0
 40
0
 40
0
 40
1
 40
1
 40
1
 40
1
 10
512.783674
 20
144.274045
 30
0.0
 10
527.277086
 20
152.641821
 30
0.0
 10
536.205396
 20
168.106108
 30
0.0
 10
536.205396
 20
184.841659
 30
0.0
  0
LWPOLYLINE
  5
151
100
AcDbEntity
  8
textbound
 62
6
100
AcDbPolyline
 90
1
 70
1
 10
536.205396
 20
285.220474
 30
0.0
  0
SPLINE
  5
152
100
AcDbEntity
  8
textbound
 62
6
100
AcDbSpline
 70
8
 71
3
 72
8
 73
4
 74
0
 40
0
 40
0
 40
0
 40
0
 40
1
 40
1
 40
1
 40
1
 10
435.826583
 20
84.462814
 30
0.0
 10
435.830818
 20
101.201188
 30
0.0
 10
426.903435
 20
116.669896
 30
0.0
 10
412.408283
 20
125.040306
 30
0.0
  0
SPLINE
  5
153
100
AcDbEntity
  8
textbound
 62
6
100
AcDbSpline
 70
8
 71
3
 72
8
 73
4
 74
0
 40
0
 40
0
 40
0
 40
0
 40
1
 40
1
 40
1
 40
1
 10
412.408283
 20
125.040306
 30
0.0
 10
397.913132
 20
133.410716
 30
0.0
 10
380.053146
 20
133.410716
 30
0.0
 10
365.557994
 20
125.040306
 30
0.0
  0
SPLINE
  5
154
100
AcDbEntity
  8
textbound
 62
6
100
AcDbSpline
 70
8
 71
3
 72
8
 73
4
 74
0
 40
0
 40
0
 40
0
 40
0
 40
1
 40
1
 40
1
 40
1
 10
365.557994
 20
125.040306
 30
0.0
 10
351.062843
 20
116.669896
 30
0.0
 10
342.135459
 20
101.201188
 30
0.0
 10
342.139695
 20
84.462814
 30
0.0
  0
SPLINE
  5
155
100
AcDbEntity
  8
textbound
 62
6
100
AcDbSpline
 70
8
 71
3
 72
8
 73
4
 74
0
 40
0
 40
0
 40
0
 40
0
 40
1
 40
1
 40
1
 40
1
 10
342.139695
 20
84.462814
 30
0.0
 10
342.135459
 20
67.724440
 30
0.0
 10
351.062843
 20
52.255732
 30
0.0
 10
365.557994
 20
43.885322
 30
0.0
  0
SPLINE
  5
156
100
AcDbEntity
  8
textbound
 62
6
100
AcDbSpline
 70
8
 71
3
 72
8
 73
4
 74
0
 40
0
 40
0
 40
0
 40
0
 40
1
 40
1
 40
1
 40
1
 10
365.557994
 20
43.885322
 30
0.0
 10
380.053146
 20
35.514911
 30
0.0
 10
397.913132
 20
35.514911
 30
0.0
 10
412.408283
 20
43.885322
 30
0.0
  0
SPLINE
  5
157
100
AcDbEntity
  8
textbound
 62
6
100
AcDbSpline
 70
8
 71
3
 72
8
 73
4
 74
0
 40
0
 40
0
 40
0
 40
0
 40
1
 40
1
 40
1
 40
1
 10
412.408283
 20
43.885322
 30
0.0
 10
426.903435
 20
52.255732
 30
0.0
 10
435.830818
 20
67.724440
 30
0.0
 10
435.826583
 20
84.462814
 30
0.0
  0
LWPOLYLINE
  5
158
100
AcDbEntity
  8
textbound
 62
6
100
AcDbPolyline
 90
1
 70
1
 10
536.205396
 20
184.841659
 30
0.0
  0
SPLINE
  5
159
100
AcDbEntity
  8
textbound
 62
6
100
AcDbSpline
 70
8
 71
3
 72
8
 73
4
 74
0
 40
0
 40
0
 40
0
 40
0
 40
1
 40
1
 40
1
 40
1
 10
335.447773
 20
84.462814
 30
0.0
 10
335.447773
 20
101.198365
 30
0.0
 10
326.519463
 20
116.662652
 30
0.0
 10
312.026050
 20
125.030427
 30
0.0
  0
SPLINE
  5
15a
100
AcDbEntity
  8
textbound
 62
6
100
AcDbSpline
 70
8
 71
3
 72
8
 73
4
 74
0
 40
0
 40
0
 40
0
 40
0
 40
1
 40
1
 40
1
 40
1
 10
312.026050
 20
125.030427
 30
0.0
 10
297.532638
 20
133.398203
 30
0.0
 10
279.676017
 20
133.398203
 30
0.0
 10
265.182605
 20
125.030427
 30
0.0
  0
SPLINE
  5
15b
100
AcDbEntity
  8
textbound
 62
6
100
AcDbSpline
 70
8
 71
3
 72
8
 73
4
 74
0
 40
0
 40
0
 40
0
 40
0
 40
1
 40
1
 40
1
 40
1
 10
265.182605
 20
125.030427
 30
0.0
 10
250.689192
 20
116.662652
 30
0.0
 10
241.760882
 20
101.198365
 30
0.0
 10
241.760883
 20
84.462814
 30
0.0
  0
SPLINE
  5
15c
100
AcDbEntity
  8
textbound
 62
6
100
AcDbSpline
 70
8
 71
3
 72
8
 73
4
 74
0
 40
0
 40
0
 40
0
 40
0
 40
1
 40
1
 40
1
 40
1
 10
241.760883
 20
84.462814
 30
0.0
 10
241.760883
 20
67.727263
 30
0.0
 10
250.689194
 20
52.262976
 30
0.0
 10
265.182606
 20
43.895200
 30
0.0
  0
SPLINE
  5
15d
100
AcDbEntity
  8
textbound
 62
6
100
AcDbSpline
 70
8
 71
3
 72
8
 73
4
 74
0
 40
0
 40
0
 40
0
 40
0
 40
1
 40
1
 40
1
 40
1
 10
265.182606
 20
43.895200
 30
0.0
 10
279.676018
 20
35.527425
 30
0.0
 10
297.532639
 20
35.527425
 30
0.0
 10
312.026051
 20
43.895200
 30
0.0
  0
SPLINE
  5
15e
100
AcDbEntity
  8
textbound
 62
6
100
AcDbSpline
 70
8
 71
3
 72
8
 73
4
 74
0
 40
0
 40
0
 40
0
 40
0
 40
1
 40
1
 40
1
 40
1
 10
312.026051
 20
43.895200
 30
0.0
 10
326.519464
 20
52.262976
 30
0.0
 10
335.447774
 20
67.727263
 30
0.0
 10
335.447774
 20
84.462814
 30
0.0
  0
LWPOLYLINE
  5
15f
100
AcDbEntity
  8
textbound
 62
6
100
AcDbPolyline
 90
1
 70
1
 10
435.826583
 20
84.462814
 30
0.0
  0
SPLINE
  5
160
100
AcDbEntity
  8
textbound
 62
6
100
AcDbSpline
 70
8
 71
3
 72
8
 73
4
 74
0
 40
0
 40
0
 40
0
 40
0
 40
1
 40
1
 40
1
 40
1
 10
235.068960
 20
84.462814
 30
0.0
 10
235.073196
 20
101.201188
 30
0.0
 10
226.145812
 20
116.669896
 30
0.0
 10
211.650661
 20
125.040306
 30
0.0
  0
SPLINE
  5
161
100
AcDbEntity
  8
textbound
 62
6
100
AcDbSpline
 70
8
 71
3
 72
8
 73
4
 74
0
 40
0
 40
0
 40
0
 40
0
 40
1
 40
1
 40
1
 40
1
 10
211.650661
 20
125.040306
 30
0.0
 10
197.155509
 20
133.410716
 30
0.0
 10
179.295523
 20
133.410716
 30
0.0
 10
164.800372
 20
125.040306
 30
0.0
  0
SPLINE
  5
162
100
AcDbEntity
  8
textbound
 62
6
100
AcDbSpline
 70
8
 71
3
 72
8
 73
4
 74
0
 40
0
 40
0
 40
0
 40
0
 40
1
 40
1
 40
1
 40
1
 10
164.800372
 20
125.040306
 30
0.0
 10
150.305220
 20
116.669896
 30
0.0
 10
141.377837
 20
101.201188
 30
0.0
 10
141.382072
 20
84.462814
 30
0.0
  0
SPLINE
  5
163
100
AcDbEntity
  8
textbound
 62
6
100
AcDbSpline
 70
8
 71
3
 72
8
 73
4
 74
0
 40
0
 40
0
 40
0
 40
0
 40
1
 40
1
 40
1
 40
1
 10
141.382072
 20
84.462814
 30
0.0
 10
141.376884
 20
67.723805
 30
0.0
 10
150.304059
 20
52.254103
 30
0.0
 10
164.799602
 20
43.883101
 30
0.0
  0
SPLINE
  5
164
100
AcDbEntity
  8
textbound
 62
6
100
AcDbSpline
 70
8
 71
3
 72
8
 73
4
 74
0
 40
0
 40
0
 40
0
 40
0
 40
1
 40
1
 40
1
 40
1
 10
164.799602
 20
43.883101
 30
0.0
 10
179.295145
 20
35.512098
 30
0.0
 10
197.155888
 20
35.512098
 30
0.0
 10
211.651430
 20
43.883101
 30
0.0
  0
SPLINE
  5
165
100
AcDbEntity
  8
textbound
 62
6
100
AcDbSpline
 70
8
 71
3
 72
8
 73
4
 74
0
 40
0
 40
0
 40
0
 40
0
 40
1
 40
1
 40
1
 40
1
 10
211.651430
 20
43.883101
 30
0.0
 10
226.146973
 20
52.254103
 30
0.0
 10
235.074148
 20
67.723805
 30
0.0
 10
235.068960
 20
84.462814
 30
0.0
  0
LWPOLYLINE
  5
166
100
AcDbEntity
  8
textbound
 62
6
100
AcDbPolyline
 90
1
 70
1
 10
335.447774
 20
84.462814
 30
0.0
  0
SPLINE
  5
167
100
AcDbEntity
  8
textbound
 62
6
100
AcDbSpline
 70
8
 71
3
 72
8
 73
4
 74
0
 40
0
 40
0
 40
0
 40
0
 40
1
 40
1
 40
1
 40
1
 10
134.690151
 20
184.841659
 30
0.0
 10
134.690151
 20
201.577210
 30
0.0
 10
125.761841
 20
217.041497
 30
0.0
 10
111.268428
 20
225.409273
 30
0.0
  0
SPLINE
  5
168
100
AcDbEntity
  8
textbound
 62
6
100
AcDbSpline
 70
8
 71
3
 72
8
 73
4
 74
0
 40
0
 40
0
 40
0
 40
0
 40
1
 40
1
 40
1
 40
1
 10
111.268428
 20
225.409273
 30
0.0
 10
96.775016
 20
233.777049
 30
0.0
 10
78.918395
 20
233.777049
 30
0.0
 10
64.424982
 20
225.409273
 30
0.0
  0
SPLINE
  5
169
100
AcDbEntity
  8
textbound
 62
6
100
AcDbSpline
 70
8
 71
3
 72
8
 73
4
 74
0
 40
0
 40
0
 40
0
 40
0
 40
1
 40
1
 40
1
 40
1
 10
64.424982
 20
225.409273
 30
0.0
 10
49.931570
 20
217.041497
 30
0.0
 10
41.003259
 20
201.577210
 30
0.0
 10
41.003261
 20
184.841659
 30
0.0
  0
SPLINE
  5
16a
100
AcDbEntity
  8
textbound
 62
6
100
AcDbSpline
 70
8
 71
3
 72
8
 73
4
 74
0
 40
0
 40
0
 40
0
 40
0
 40
1
 40
1
 40
1
 40
1
 10
41.003261
 20
184.841659
 30
0.0
 10
41.003261
 20
168.106108
 30
0.0
 10
49.931571
 20
152.641821
 30
0.0
 10
64.424983
 20
144.274045
 30
0.0
  0
SPLINE
  5
16b
100
AcDbEntity
  8
textbound
 62
6
100
AcDbSpline
 70
8
 71
3
 72
8
 73
4
 74
0
 40
0
 40
0
 40
0
 40
0
 40
1
 40
1
 40
1
 40
1
 10
64.424983
 20
144.274045
 30
0.0
 10
78.918396
 20
135.906270
 30
0.0
 10
96.775016
 20
135.906270
 30
0.0
 10
111.268429
 20
144.274045
 30
0.0
  0
SPLINE
  5
16c
100
AcDbEntity
  8
textbound
 62
6
100
AcDbSpline
 70
8
 71
3
 72
8
 73
4
 74
0
 40
0
 40
0
 40
0
 40
0
 40
1
 40
1
 40
1
 40
1
 10
111.268429
 20
144.274045
 30
0.0
 10
125.761841
 20
152.641821
 30
0.0
 10
134.690151
 20
168.106108
 30
0.0
 10
134.690151
 20
184.841659
 30
0.0
  0
LWPOLYLINE
  5
16d
100
AcDbEntity
  8
textbound
 62
6
100
AcDbPolyline
 90
1
 70
1
 10
235.068960
 20
84.462814
 30
0.0
  0
LWPOLYLINE
  5
16e
100
AcDbEntity
  8
textbound
 62
6
100
AcDbPolyline
 90
1
 70
1
 10
134.690151
 20
184.841659
 30
0.0
  0
ENDSEC
  0
SECTION
  2
OBJECTS
  0
DICTIONARY
  5
C
330
0
100
AcDbDictionary
  3
ACAD_GROUP
350
D
  3
ACAD_MLINESTYLE
350
17
  0
DICTIONARY
  5
D
330
C
100
AcDbDictionary
  0
DICTIONARY
  5
1A
330
C
100
AcDbDictionary
  0
DICTIONARY
  5
17
330
C
100
AcDbDictionary
  3
STANDARD
350
18
  0
DICTIONARY
  5
19
330
C
100
AcDbDictionary
  0
ENDSEC
  0
EOF
