<?xml version="1.0" encoding="UTF-8" standalone="no"?>
<svg
   xmlns:dc="http://purl.org/dc/elements/1.1/"
   xmlns:cc="http://creativecommons.org/ns#"
   xmlns:rdf="http://www.w3.org/1999/02/22-rdf-syntax-ns#"
   xmlns:svg="http://www.w3.org/2000/svg"
   xmlns="http://www.w3.org/2000/svg"
   xmlns:sodipodi="http://sodipodi.sourceforge.net/DTD/sodipodi-0.dtd"
   xmlns:inkscape="http://www.inkscape.org/namespaces/inkscape"
   width="793.700787402"
   height="1122.51968504"
   version="1.1"
   id="svg5256"
   sodipodi:docname="S3b.svg"
   inkscape:version="0.92.1 r15371">
  <metadata
     id="metadata5260">
    <rdf:RDF>
      <cc:Work
         rdf:about="">
        <dc:format>image/svg+xml</dc:format>
        <dc:type
           rdf:resource="http://purl.org/dc/dcmitype/StillImage" />
        <dc:title></dc:title>
      </cc:Work>
    </rdf:RDF>
  </metadata>
  <sodipodi:namedview
     pagecolor="#ffffff"
     bordercolor="#666666"
     borderopacity="1"
     objecttolerance="10"
     gridtolerance="10"
     guidetolerance="10"
     inkscape:pageopacity="0"
     inkscape:pageshadow="2"
     inkscape:window-width="1920"
     inkscape:window-height="1001"
     id="namedview5258"
     showgrid="false"
     inkscape:zoom="0.21024131"
     inkscape:cx="-658.9501"
     inkscape:cy="1224.4464"
     inkscape:window-x="-9"
     inkscape:window-y="-9"
     inkscape:window-maximized="1"
     inkscape:current-layer="g5252" />
  <desc
     id="desc5201">C:\projects\codingbootcamp\exercises\Challenges\RDM\images\S3b.dxf - scale = 23.607609, origin = (-4.351591, -5.750000), method = auto</desc>
  <defs
     id="defs5216">
    <marker
       id="DistanceX"
       orient="auto"
       refX="0.0"
       refY="0.0"
       style="overflow:visible">
      <path
         d="M 3,-3 L -3,3 M 0,-5 L  0,5"
         style="stroke:#000000; stroke-width:0.5"
         id="path5203" />
    </marker>
    <pattern
       height="8"
       id="Hatch"
       patternUnits="userSpaceOnUse"
       width="8"
       x="0"
       y="0">
      <path
         d="M8 4 l-4,4"
         linecap="square"
         stroke="#000000"
         stroke-width="0.25"
         id="path5206" />
      <path
         d="M6 2 l-4,4"
         linecap="square"
         stroke="#000000"
         stroke-width="0.25"
         id="path5208" />
      <path
         d="M4 0 l-4,4"
         linecap="square"
         stroke="#000000"
         stroke-width="0.25"
         id="path5210" />
    </pattern>
    <symbol
       id="*Model_Space" />
    <symbol
       id="*Paper_Space" />
    <symbol
       id="*Paper_Space0" />
  </defs>
  <g
     inkscape:groupmode="layer"
     inkscape:label="0"
     id="g5218" />
  <g
     inkscape:groupmode="layer"
     inkscape:label="textbound"
     id="g5252">
    <path
       style="stroke:#FF00FF;fill:none"
       d="m 714.94053,340.71048 a 62.457927,62.457927 0 1 0 -124.91586,0 62.457927,62.457927 0 1 0 124.91586,0 z"
       id="path5220" />
    <path
       style="stroke:#FF00FF;fill:none"
       d="m 714.94053,340.71048 a 62.457927,62.457927 0 1 0 -124.91586,0 62.457927,62.457927 0 1 0 124.91586,0 z"
       id="path5222" />
    <path
       style="stroke:#FF00FF;fill:#000000;fill-opacity:1"
       d="m 581.10211,206.87206 a 62.457927,62.457927 0 1 0 -124.91585,0 62.457927,62.457927 0 1 0 124.91585,0 z"
       id="path5224" />
    <path
       style="stroke:#FF00FF;fill:none"
       d="m 447.2637,206.87206 a 62.457927,62.457927 0 1 0 -124.91586,0 62.457927,62.457927 0 1 0 124.91586,0 z"
       id="path5226" />
    <path
       style="stroke:#FF00FF;fill:none"
       d="m 313.42528,206.87206 a 62.457927,62.457927 0 1 0 -124.91585,0 62.457928,62.457928 0 1 0 124.91585,0 z"
       id="path5228" />
    <path
       style="stroke:#FF00FF;fill:none"
       d="m 179.58687,340.71048 a 62.457928,62.457928 0 1 0 -124.915859,0 62.457927,62.457927 0 1 0 124.915859,0 z"
       id="path5230" />
    <path
       style="stroke:#FF00FF;fill:none"
       d="m 179.58687,474.54889 a 62.457928,62.457928 0 1 0 -124.915859,0 62.457927,62.457927 0 1 0 124.915859,0 z"
       id="path5232" />
    <path
       style="stroke:#FF00FF;fill:none"
       d="m 313.42528,608.38731 a 62.457927,62.457927 0 1 0 -124.91585,0 62.457928,62.457928 0 1 0 124.91585,0 z"
       id="path5234" />
    <path
       style="stroke:#FF00FF;fill:none"
       d="m 447.2637,608.38731 a 62.457927,62.457927 0 1 0 -124.91586,0 62.457927,62.457927 0 1 0 124.91586,0 z"
       id="path5236" />
    <path
       style="stroke:#FF00FF;fill:#000000;fill-opacity:1"
       d="m 581.10211,608.38731 a 62.457927,62.457927 0 1 0 -124.91585,0 62.457927,62.457927 0 1 0 124.91585,0 z"
       id="path5238" />
    <path
       style="stroke:#FF00FF;fill:none"
       d="m 714.94053,742.22572 a 62.457927,62.457927 0 1 0 -124.91586,0 62.457927,62.457927 0 1 0 124.91586,0 z"
       id="path5240" />
    <path
       style="stroke:#FF00FF;fill:none"
       d="m 714.94053,876.06414 a 62.457927,62.457927 0 1 0 -124.91586,0 62.457927,62.457927 0 1 0 124.91586,0 z"
       id="path5242" />
    <path
       style="stroke:#FF00FF;fill:none"
       d="m 581.10211,1009.9026 a 62.457927,62.457927 0 1 0 -124.91585,0 62.457927,62.457927 0 1 0 124.91585,0 z"
       id="path5244" />
    <path
       style="stroke:#FF00FF;fill:none"
       d="m 447.2637,1009.9026 a 62.457927,62.457927 0 1 0 -124.91586,0 62.457927,62.457927 0 1 0 124.91586,0 z"
       id="path5246" />
    <path
       style="stroke:#FF00FF;fill:none"
       d="m 313.42528,1009.9026 a 62.457927,62.457927 0 1 0 -124.91585,0 62.457928,62.457928 0 1 0 124.91585,0 z"
       id="path5248" />
    <path
       style="stroke:#FF00FF;fill:#000000;fill-opacity:1"
       d="m 179.58687,876.06414 a 62.457928,62.457928 0 1 0 -124.915859,0 62.457927,62.457927 0 1 0 124.915859,0 z"
       id="path5250" />
  </g>
  <g
     inkscape:groupmode="layer"
     inkscape:label="t"
     id="g5254" />
</svg>
